<?xml version="1.0" standalone="no"?>
<!DOCTYPE svg PUBLIC "-//W3C//DTD SVG 1.1//EN" "http://www.w3.org/Graphics/SVG/1.1/DTD/svg11.dtd" >
<svg xmlns="http://www.w3.org/2000/svg" xmlns:xlink="http://www.w3.org/1999/xlink" version="1.1">
<metadata>
Created by FontForge 20170924 at Thu Sep  1 18:53:14 1994
 By www-data
Copyright 1992 Southern Software, Inc. All Rights Reserved.
</metadata>
<defs>
<font id="ReductoSSK" horiz-adv-x="503" >
  <font-face 
    font-family="ReductoSSK"
    font-weight="5"
    font-stretch="normal"
    units-per-em="1000"
    panose-1="0 0 0 0 0 0 0 0 0 0"
    ascent="800"
    descent="-200"
    x-height="512"
    cap-height="719"
    bbox="-224 -233 1030 947"
    underline-thickness="50"
    underline-position="-125"
    unicode-range="U+0020-F002"
  />
<missing-glyph horiz-adv-x="800" 
d="M50 0v800h700v-800h-700zM700 50v700h-600v-700h600z" />
    <glyph glyph-name=".notdef" horiz-adv-x="800" 
d="M50 0v800h700v-800h-700zM700 50v700h-600v-700h600z" />
    <glyph glyph-name=".null" horiz-adv-x="0" 
 />
    <glyph glyph-name="nonmarkingreturn" horiz-adv-x="242" 
 />
    <glyph glyph-name="space" unicode=" " horiz-adv-x="242" 
 />
    <glyph glyph-name="exclam" unicode="!" horiz-adv-x="196" 
d="M162 719l-39 -541h-51l-38 541h128zM149 103v-103h-102v103h102z" />
    <glyph glyph-name="quotedbl" unicode="&#x22;" horiz-adv-x="310" 
d="M128 719v-178h-78v178h78zM259 719v-178h-78v178h78z" />
    <glyph glyph-name="numbersign" unicode="#" horiz-adv-x="489" 
d="M178 220l-31 -220h-78l31 220h-92v67h99l22 145h-92v67h99l31 220h78l-31 -220h98l31 220h78l-31 -220h92v-67h-99l-22 -145h92v-67h-99l-31 -220h-78l31 220h-98zM207 432l-22 -145h98l22 145h-98z" />
    <glyph glyph-name="dollar" unicode="$" horiz-adv-x="500" 
d="M236 91v225q-92 21 -133 71.5t-41 130.5q0 87 47 142t127 65v71h51v-71q47 0 87.5 -16.5t81.5 -50.5l-58 -77q-24 22 -53 34.5t-58 12.5v-215q92 -18 139 -74q44 -53 44 -134q0 -83 -50 -141t-133 -70v-109h-51v109q-56 0 -110 26t-96 70l70 75q28 -33 59 -51.5t77 -22.5
zM164 520q0 -37 16 -59.5t56 -35.5v203q-32 -5 -52 -31.5t-20 -76.5zM368 206q0 38 -16 61q-20 29 -65 37v-213q43 11 62 40t19 75z" />
    <glyph glyph-name="percent" unicode="%" horiz-adv-x="477" 
d="M353 263q40 0 65 -23q29 -27 29 -77v-69q0 -49 -27.5 -74.5t-66.5 -25.5q-40 0 -65 23q-29 27 -29 77v69q0 49 27.5 74.5t66.5 25.5zM124 725q40 0 65 -23q29 -27 29 -77v-68q0 -49 -27.5 -74.5t-66.5 -25.5q-40 0 -65 23q-29 27 -29 77v68q0 49 27.5 74.5t66.5 25.5z
M440 719l-337 -719h-66l337 719h66zM124 514q37 0 37 50v54q0 50 -37 50t-37 -50v-54q0 -50 37 -50zM353 52q37 0 37 49v55q0 49 -37 49t-37 -49v-55q0 -49 37 -49z" />
    <glyph glyph-name="ampersand" unicode="&#x26;" horiz-adv-x="608" 
d="M224 -6q-99 0 -162 65t-63 156q0 65 35.5 120.5t100.5 89.5q-27 32 -43 67.5t-16 69.5q0 67 45 115t115 48t115 -48t45 -115q0 -53 -27.5 -92t-91.5 -69l152 -185q20 26 35 56t27 64l91 -36q-17 -43 -39 -81q-26 -45 -54 -75l120 -144h-120l-66 73q-48 -37 -93 -56
q-53 -23 -106 -23zM306 566q0 28 -20 48t-50 20t-50 -20t-20 -48q0 -21 15 -46t38 -46q48 18 67.5 40t19.5 52zM89 216q0 -56 38.5 -93.5t93.5 -37.5q36 0 72 15t71 48l-172 209q-52 -29 -77.5 -65t-25.5 -76z" />
    <glyph glyph-name="quotesingle" unicode="'" horiz-adv-x="188" 
d="M133 719v-178h-78v178h78z" />
    <glyph glyph-name="parenleft" unicode="(" horiz-adv-x="198" 
d="M0 308q0 108 40 216t118 195h40q-46 -96 -71 -201t-25 -210q0 -109 24 -209.5t72 -201.5h-40q-76 85 -117 195t-41 216z" />
    <glyph glyph-name="parenright" unicode=")" horiz-adv-x="231" 
d="M215 308q0 -108 -40 -216t-118 -195h-40q46 97 71 201.5t25 209.5q0 109 -24 209.5t-72 201.5h40q76 -85 117 -195t41 -216z" />
    <glyph glyph-name="asterisk" unicode="*" horiz-adv-x="310" 
d="M45 472l-30 46l83 52l-83 51l30 47l80 -47v98h60v-98l80 47l30 -47l-83 -51l83 -52l-30 -46l-80 46v-98h-60v98z" />
    <glyph glyph-name="plus" unicode="+" horiz-adv-x="565" 
d="M322 511v-216h214v-79h-214v-216h-78v216h-214v79h214v216h78z" />
    <glyph glyph-name="comma" unicode="," horiz-adv-x="209" 
d="M156 103v-103l-102 -75v178h102z" />
    <glyph glyph-name="hyphen" unicode="-" horiz-adv-x="353" 
d="M327 331v-103h-301v103h301z" />
    <glyph glyph-name="period" unicode="." horiz-adv-x="210" 
d="M156 103v-103h-102v103h102z" />
    <glyph glyph-name="slash" unicode="/" horiz-adv-x="301" 
d="M309 725l-239 -731h-78l239 731h78z" />
    <glyph glyph-name="zero" unicode="0" 
d="M251 725q82 0 140 -54q62 -58 62 -153v-317q0 -95 -61 -153q-57 -54 -141 -54q-82 0 -140 54q-62 58 -62 153v317q0 95 61 153q57 54 141 54zM251 622q-46 0 -73 -29t-27 -81v-305q0 -52 27 -81t73 -29t73 29t27 81v305q0 52 -27 81t-73 29z" />
    <glyph glyph-name="one" unicode="1" 
d="M150 535v109l101 75h102v-719h-102v610z" />
    <glyph glyph-name="two" unicode="2" 
d="M326 448q15 18 20.5 36.5t5.5 35.5q0 40 -27 71t-71 31t-74 -28t-30 -76h-102q0 86 58.5 146.5t139.5 60.5q89 0 148.5 -59.5t59.5 -146.5q0 -73 -43 -126l-229 -290h272v-103h-406v97z" />
    <glyph glyph-name="three" unicode="3" 
d="M240 416q50 0 80 29t30 73t-30 74t-74 30q-35 0 -62.5 -22t-35.5 -65h-102q0 75 59.5 132.5t136.5 57.5q92 0 153 -63q57 -59 57 -142q0 -47 -15 -80q-18 -40 -61 -68q42 -28 63 -69.5t21 -88.5q0 -99 -61.5 -159.5t-154.5 -60.5q-75 0 -130 47q-58 50 -72 138h102
q16 -41 40 -61.5t66 -20.5q44 0 76 31t32 83q0 53 -31.5 83.5t-78.5 30.5h-43v91h35z" />
    <glyph glyph-name="four" unicode="4" 
d="M261 719h114l-241 -515h186v207h102v-207h57v-97h-57v-107h-102v107h-297v97z" />
    <glyph glyph-name="five" unicode="5" 
d="M440 719v-103h-283v-163q49 40 114 40q40 0 72.5 -14.5t54.5 -38.5q31 -33 43.5 -73t12.5 -124q0 -70 -9.5 -105.5t-34.5 -67.5t-61 -52q-43 -24 -93 -24q-79 0 -133 42q-64 50 -75 145h102q8 -40 34 -62t68 -22q65 0 87 52q13 31 13 102q0 66 -20 99q-24 40 -83 40
q-30 0 -52 -14t-40 -46h-96v389h379z" />
    <glyph glyph-name="six" unicode="6" 
d="M379 719l-150 -304q26 9 56 9q74 0 119 -47q51 -53 51 -153q0 -115 -65 -176q-57 -54 -145 -54q-78 0 -136 59q-62 63 -62 160q0 33 7 62.5t20 57.5l191 386h114zM251 97q42 0 69 26q33 31 33 92q0 58 -29 88t-73 30q-45 0 -73.5 -29.5t-28.5 -88.5t27 -88.5t75 -29.5z
" />
    <glyph glyph-name="seven" unicode="7" 
d="M454 719v-103l-241 -616h-114l241 616h-189v-104h-102v207h405z" />
    <glyph glyph-name="eight" unicode="8" 
d="M47 517q0 87 59.5 147.5t144.5 60.5q86 0 145 -60t59 -148q0 -45 -18 -79t-53 -66q84 -58 84 -162q0 -94 -63 -155t-154 -61t-154 61t-63 155q0 104 84 162q-34 31 -51 63q-20 38 -20 82zM353 519q0 49 -30 76t-72 27q-41 0 -71.5 -27.5t-30.5 -75.5q0 -49 30 -76t72 -27
q41 0 71.5 27.5t30.5 75.5zM366 211q0 49 -33.5 81.5t-81.5 32.5q-46 0 -80.5 -32.5t-34.5 -81.5t33.5 -81.5t81.5 -32.5q46 0 80.5 32.5t34.5 81.5z" />
    <glyph glyph-name="nine" unicode="9" 
d="M123 0l150 304q-26 -9 -56 -9q-74 0 -119 47q-51 53 -51 153q0 116 65 177q56 53 145 53q78 0 136 -59q62 -63 62 -160q0 -66 -27 -120l-191 -386h-114zM251 622q-42 0 -69 -26q-33 -31 -33 -92q0 -58 29 -88t73 -30q45 0 73.5 29.5t28.5 88.5t-27 88.5t-75 29.5z" />
    <glyph glyph-name="colon" unicode=":" horiz-adv-x="178" 
d="M140 332v-103h-102v103h102zM140 103v-103h-102v103h102z" />
    <glyph glyph-name="semicolon" unicode=";" horiz-adv-x="181" 
d="M142 103v-103l-102 -75v178h102zM142 332v-103h-102v103h102z" />
    <glyph glyph-name="less" unicode="&#x3c;" horiz-adv-x="564" 
d="M535 519v-85l-416 -178l416 -179v-85l-506 227v73z" />
    <glyph glyph-name="equal" unicode="=" horiz-adv-x="560" 
d="M533 396v-79h-506v79h506zM533 194v-79h-506v79h506z" />
    <glyph glyph-name="greater" unicode="&#x3e;" horiz-adv-x="559" 
d="M443 256l-416 178v85l506 -227v-73l-506 -227v85z" />
    <glyph glyph-name="question" unicode="?" horiz-adv-x="414" 
d="M182 340l89 126q25 36 25 66q0 40 -27 65t-59 25q-42 0 -65 -24q-27 -28 -27 -86h-102v20q0 81 56 137t133 56q78 0 135.5 -53.5t57.5 -140.5q0 -61 -32 -106l-91 -126q-10 -14 -13.5 -27.5t-3.5 -36.5v-57h-102v65q0 35 4.5 54t21.5 43zM258 103v-103h-102v103h102z" />
    <glyph glyph-name="at" unicode="@" horiz-adv-x="740" 
d="M586 543l-80 -261q-10 -30 -10 -52q0 -14 5 -21.5t18 -7.5q43 0 89 72.5t46 144.5q0 99 -74.5 163.5t-192.5 64.5q-138 0 -222 -85q-79 -80 -79 -199q0 -125 84 -207t222 -82q87 0 147.5 23.5t104.5 70.5h66q-51 -81 -137.5 -127t-192.5 -46q-160 0 -266 104t-106 266
q0 158 106.5 259.5t267.5 101.5q147 0 248.5 -85.5t101.5 -216.5q0 -116 -82 -204q-73 -79 -146 -79q-69 0 -80 65q-28 -31 -49 -44q-34 -21 -79 -21q-62 0 -102 45t-40 109q0 105 66 188q71 89 173 89q38 0 67 -19t46 -60l14 51h66zM474 414q0 35 -23.5 62.5t-57.5 27.5
q-67 0 -116 -70q-45 -64 -45 -133q0 -42 24 -68t62 -26q61 0 111 74q45 67 45 133z" />
    <glyph glyph-name="A" unicode="A" horiz-adv-x="602" 
d="M166 161l-55 -161h-114l259 719h90l259 -719h-114l-55 161h-270zM302 572l-105 -314h208z" />
    <glyph glyph-name="B" unicode="B" horiz-adv-x="589" 
d="M322 719q102 0 158 -54q53 -51 53 -139q0 -50 -21 -85q-26 -43 -84 -69q56 -15 86 -62t30 -106q0 -90 -58 -147t-140 -57h-300v719h276zM154 103h166q57 0 88 33q28 29 28 75t-28 75q-31 33 -88 33h-166v-216zM154 416h156q56 0 85.5 29t29.5 74q0 44 -28 72
q-31 31 -87 31h-156v-206z" />
    <glyph glyph-name="C" unicode="C" horiz-adv-x="512" 
d="M258 -6q-78 0 -141 41q-53 34 -82 88q-19 35 -25 75.5t-6 161.5q0 126 5.5 162t25.5 74q29 53 82 88q63 41 141 41q98 0 167 -62q66 -59 83 -151h-114q-13 44 -50 74t-86 30q-37 0 -64 -14t-46 -38q-22 -29 -29 -65t-7 -139q0 -108 6.5 -141t29.5 -63q17 -23 45.5 -38
t64.5 -15q91 0 136 98h114q-21 -99 -88 -153t-162 -54z" />
    <glyph glyph-name="D" unicode="D" horiz-adv-x="601" 
d="M297 719q71 0 127 -31t90 -90q26 -44 32 -84.5t6 -153.5q0 -122 -7 -161t-33 -80q-33 -53 -86 -84q-61 -35 -136 -35h-242v719h249zM285 103q90 0 132 63q17 26 22 59t5 131q0 105 -4.5 137.5t-28 64.5t-52.5 45t-74 13h-129v-513h129z" />
    <glyph glyph-name="E" unicode="E" horiz-adv-x="516" 
d="M492 719v-103h-347v-205h296v-97h-296v-211h347v-103h-455v719h455z" />
    <glyph glyph-name="F" unicode="F" horiz-adv-x="513" 
d="M494 719v-103h-347v-212h296v-97h-296v-307h-108v719h455z" />
    <glyph glyph-name="G" unicode="G" horiz-adv-x="560" 
d="M534 396v-147q0 -107 -73 -181t-181 -74q-78 0 -141 41q-53 34 -82 88q-19 35 -25 75.5t-6 161.5q0 126 5.5 162t25.5 74q29 53 82 88q63 41 141 41q98 0 167 -62q66 -59 83 -151h-114q-13 44 -50 74t-86 30q-37 0 -64 -14t-46 -38q-22 -29 -29 -65t-7 -139
q0 -108 6.5 -141t29.5 -63q17 -23 45.5 -38t64.5 -15q63 0 104.5 42.5t41.5 110.5v37h-145v103h253z" />
    <glyph glyph-name="H" unicode="H" horiz-adv-x="580" 
d="M149 314v-314h-108v719h108v-308h282v308h108v-719h-108v314h-282z" />
    <glyph glyph-name="I" unicode="I" horiz-adv-x="190" 
d="M149 719v-719h-108v719h108z" />
    <glyph glyph-name="J" unicode="J" horiz-adv-x="441" 
d="M196 103q48 0 81 28q42 36 42 103v485h108v-496q0 -102 -71 -168q-66 -61 -157 -61q-59 0 -106.5 25t-78.5 69l87 64q15 -22 39 -35.5t56 -13.5z" />
    <glyph glyph-name="K" unicode="K" horiz-adv-x="620" 
d="M161 719v-371l295 371h128l-228 -284l252 -435h-128l-194 351l-125 -132v-219h-108v719h108z" />
    <glyph glyph-name="L" unicode="L" horiz-adv-x="506" 
d="M151 719v-616h347v-103h-455v719h108z" />
    <glyph glyph-name="M" unicode="M" horiz-adv-x="690" 
d="M143 719l204 -469l200 469h102v-719h-108v448l-151 -345h-90l-149 345l-2 -448h-108v719h102z" />
    <glyph glyph-name="N" unicode="N" horiz-adv-x="616" 
d="M143 719l322 -511l2 511h108v-719h-102l-322 511l-2 -511h-108v719h102z" />
    <glyph glyph-name="O" unicode="O" horiz-adv-x="555" 
d="M277 725q78 0 141 -41q53 -34 82 -88q19 -35 25 -75t6 -161q0 -125 -5.5 -163t-25.5 -74q-28 -53 -82 -88q-63 -41 -141 -41t-141 41q-53 34 -82 88q-19 35 -25 75.5t-6 161.5q0 126 5.5 162t25.5 74q29 53 82 88q63 41 141 41zM277 103q37 0 64 14t47.5 40.5t27.5 63
t7 139.5q0 106 -6.5 140.5t-29.5 63.5q-17 23 -43 36q-31 16 -67 16q-37 0 -64 -14t-46 -38q-22 -29 -29 -65t-7 -139q0 -108 6.5 -141t29.5 -63q17 -23 45.5 -38t64.5 -15z" />
    <glyph glyph-name="P" unicode="P" horiz-adv-x="508" 
d="M264 719q50 0 85 -9.5t75 -40.5q35 -28 56 -71.5t21 -100.5q0 -84 -56 -146q-64 -70 -167 -70h-164v-281h-108v719h258zM274 384q56 0 87.5 34.5t31.5 81.5q0 34 -12.5 58t-31.5 36.5t-36.5 17t-42.5 4.5h-156v-232h160z" />
    <glyph glyph-name="Q" unicode="Q" horiz-adv-x="618" 
d="M278 -6q-78 0 -141 41q-53 34 -82 88q-19 35 -25 75.5t-6 161.5q0 126 5.5 162t25.5 74q29 53 82 88q63 41 141 41t141 -41q53 -34 82 -88q19 -35 25 -75t6 -161q0 -117 -5 -156t-21 -70l94 -75l-64 -75l-90 73q-33 -29 -75.5 -46t-92.5 -17zM331 276l83 -67
q10 34 10 151q0 107 -6.5 140.5t-29.5 63.5q-17 22 -46 37t-64 15q-37 0 -64 -14t-46 -38q-22 -29 -29 -65t-7 -139q0 -108 6.5 -141t29.5 -63q17 -23 45.5 -38t64.5 -15q23 0 43.5 6.5t36.5 18.5l-91 73z" />
    <glyph glyph-name="R" unicode="R" horiz-adv-x="570" 
d="M313 719q46 0 81 -11t65.5 -37.5t50 -66.5t19.5 -86q0 -71 -36 -123.5t-102 -75.5l165 -319h-128l-147 307h-138v-307h-108v719h278zM306 404q58 0 89.5 32.5t31.5 81.5q0 29 -9 49t-27 33q-29 22 -79 22h-169v-218h163z" />
    <glyph glyph-name="S" unicode="S" horiz-adv-x="539" 
d="M282 103q65 0 103 27t38 73q0 40 -22.5 65.5t-70.5 31.5l-94 13q-91 13 -140 67t-49 135q0 94 62 152t170 58q62 0 120.5 -20t110.5 -55l-60 -89q-41 26 -85.5 40.5t-90.5 14.5q-52 0 -85.5 -26.5t-33.5 -76.5q0 -33 24.5 -58.5t76.5 -33.5l80 -11q95 -11 147 -72
q48 -56 48 -135q0 -99 -67 -154t-183 -55q-161 0 -272 99l71 82q41 -33 94 -52.5t108 -19.5z" />
    <glyph glyph-name="T" unicode="T" horiz-adv-x="543" 
d="M22 622v97h498v-97h-195v-622h-108v622h-195z" />
    <glyph glyph-name="U" unicode="U" horiz-adv-x="577" 
d="M144 719v-463q0 -73 40 -113t105 -40q64 0 104.5 40.5t40.5 112.5v463h108v-476q0 -110 -72.5 -179.5t-180.5 -69.5t-179 68q-74 71 -74 181v476h108z" />
    <glyph glyph-name="V" unicode="V" horiz-adv-x="594" 
d="M141 719l162 -547l164 547h114l-235 -719h-84l-235 719h114z" />
    <glyph glyph-name="W" unicode="W" horiz-adv-x="850" 
d="M131 719l112 -511l140 511h78l138 -511l114 511h114l-178 -719h-90l-136 518l-138 -518h-90l-178 719h114z" />
    <glyph glyph-name="X" unicode="X" horiz-adv-x="548" 
d="M103 0h-122l218 369l-204 350h122l142 -249l142 249h122l-204 -350l218 -369h-122l-156 268z" />
    <glyph glyph-name="Y" unicode="Y" horiz-adv-x="553" 
d="M19 719h114l151 -319l151 319h114l-214 -423v-296h-102v296z" />
    <glyph glyph-name="Z" unicode="Z" horiz-adv-x="472" 
d="M332 622h-310v97h442v-82l-324 -534h324v-103h-455v91z" />
    <glyph glyph-name="bracketleft" unicode="[" horiz-adv-x="208" 
d="M197 719v-67h-95v-688h95v-67h-185v822h185z" />
    <glyph glyph-name="backslash" unicode="\" horiz-adv-x="331" 
d="M85 725l239 -731h-78l-239 731h78z" />
    <glyph glyph-name="bracketright" unicode="]" horiz-adv-x="224" 
d="M20 652v67h185v-822h-185v67h95v688h-95z" />
    <glyph glyph-name="asciicircum" unicode="^" horiz-adv-x="502" 
d="M284 719l217 -433h-84l-166 348l-166 -348h-84l217 433h66z" />
    <glyph glyph-name="underscore" unicode="_" horiz-adv-x="450" 
d="M475 -76v-50h-500v50h500z" />
    <glyph glyph-name="grave" unicode="`" horiz-adv-x="280" 
d="M161 725l92 -147h-84l-142 147h134z" />
    <glyph glyph-name="a" unicode="a" horiz-adv-x="436" 
d="M193 -6q-83 0 -131 44t-48 112q0 66 41 107q45 45 124 45h141v54q0 35 -24 50t-80 15q-41 0 -61.5 -8t-34.5 -31l-80 61q29 40 70.5 57.5t100.5 17.5q101 0 152 -36q59 -42 59 -133v-349h-102v45q-17 -26 -47 -38.5t-80 -12.5zM198 217q-44 0 -66 -16t-22 -45t23 -47
t73 -18q68 0 89 14q25 17 25 75v37h-122z" />
    <glyph glyph-name="b" unicode="b" horiz-adv-x="464" 
d="M132 719v-261q30 28 62.5 44t68.5 16q44 0 78 -18t58 -49q21 -28 28.5 -65.5t7.5 -128.5q0 -96 -7 -131t-30 -65.5t-57 -48.5t-78 -18q-39 0 -72 15.5t-59 44.5v-54h-102v719h102zM232 97q64 0 86 50q15 34 15 110t-14 108q-22 50 -87 50q-63 0 -85 -51q-15 -35 -15 -107
q0 -75 14 -108q22 -52 86 -52z" />
    <glyph glyph-name="c" unicode="c" horiz-adv-x="459" 
d="M253 -6q-98 0 -159 60q-71 69 -71 202q0 131 71 201q62 61 159 61q54 0 100.5 -24t81.5 -65l-75 -67q-19 24 -45.5 38.5t-57.5 14.5q-64 0 -98 -38.5t-34 -120.5q0 -81 34 -120t98 -39q30 0 56.5 14t46.5 39l75 -67q-35 -42 -80.5 -65.5t-101.5 -23.5z" />
    <glyph glyph-name="d" unicode="d" horiz-adv-x="465" 
d="M202 -6q-44 0 -78.5 18t-56.5 47t-29.5 67.5t-7.5 130.5q0 94 7 130t29.5 65.5t56.5 47.5t79 18q38 0 68.5 -15t62.5 -45v261h102v-719h-102v54q-24 -27 -59 -43.5t-72 -16.5zM233 97q63 0 85 52q15 35 15 108t-14 106q-22 52 -86 52t-86 -49q-15 -33 -15 -109
q0 -78 14 -110q22 -50 87 -50z" />
    <glyph glyph-name="e" unicode="e" horiz-adv-x="457" 
d="M242 91q64 0 111 49l74 -63q-36 -42 -83.5 -62.5t-99.5 -20.5q-94 0 -151 51q-74 66 -74 210q0 137 67 206q56 57 142 57q87 0 146 -58q63 -62 63 -158v-85h-316q0 -61 33.5 -93.5t87.5 -32.5zM228 421q-47 0 -77 -31t-30 -88h214q0 57 -30 88t-77 31z" />
    <glyph glyph-name="f" unicode="f" horiz-adv-x="290" 
d="M21 433v79h51v68q0 69 38 104t100 35h66v-97h-58q-25 0 -34.5 -9.5t-9.5 -32.5v-68h102v-79h-102v-433h-102v433h-51z" />
    <glyph glyph-name="g" unicode="g" horiz-adv-x="467" 
d="M203 -6q-45 0 -83 20q-31 16 -51 43q-24 31 -31 64t-7 135q0 101 7 134.5t31 65.5q20 25 51 42q37 20 83 20q74 0 131 -60v54h102v-500q0 -110 -66 -170q-60 -55 -154 -55q-48 0 -94.5 23t-81.5 63l79 63q20 -20 45.5 -33t53.5 -13q52 0 84 29t32 82v53
q-24 -27 -59 -43.5t-72 -16.5zM234 97q29 0 47.5 10.5t32.5 28.5t17 37t3 83q0 63 -3 82t-16 36.5t-31 27.5q-23 13 -50 13q-29 0 -48.5 -11t-33 -28.5t-16.5 -36.5t-3 -83q0 -63 3 -82t16.5 -36.5t33.5 -29t48 -11.5z" />
    <glyph glyph-name="h" unicode="h" horiz-adv-x="472" 
d="M135 719v-261q51 60 134 60q65 0 114 -45q55 -50 55 -133v-340h-102v305q0 51 -27.5 80.5t-72.5 29.5t-73 -29t-28 -81v-305h-102v719h102z" />
    <glyph glyph-name="i" unicode="i" horiz-adv-x="171" 
d="M136 512v-512h-102v512h102zM136 719v-103h-102v103h102z" />
    <glyph glyph-name="j" unicode="j" horiz-adv-x="247" 
d="M211 512v-576q0 -64 -41.5 -103.5t-106.5 -39.5h-40v97h29q57 0 57 54v568h102zM211 719v-103h-102v103h102z" />
    <glyph glyph-name="k" unicode="k" horiz-adv-x="507" 
d="M158 719v-447l197 240h122l-175 -200l199 -312h-128l-135 239l-80 -92v-147h-102v719h102z" />
    <glyph glyph-name="l" unicode="l" horiz-adv-x="236" 
d="M150 719v-587q0 -35 38 -35h35v-97h-45q-61 0 -93 27q-37 31 -37 97v595h102z" />
    <glyph glyph-name="m" unicode="m" horiz-adv-x="790" 
d="M143 512v-54q51 60 134 60q49 0 84 -19q28 -15 59 -48q60 67 160 67q65 0 114 -45q55 -50 55 -133v-340h-102v305q0 51 -27.5 80.5t-72.5 29.5t-73 -29t-28 -81v-305h-102v305q0 51 -27.5 80.5t-72.5 29.5t-73 -29t-28 -81v-305h-102v512h102z" />
    <glyph glyph-name="n" unicode="n" horiz-adv-x="484" 
d="M142 512v-54q51 60 134 60q65 0 114 -45q55 -50 55 -133v-340h-102v305q0 51 -27.5 80.5t-72.5 29.5t-73 -29t-28 -81v-305h-102v512h102z" />
    <glyph glyph-name="o" unicode="o" horiz-adv-x="463" 
d="M231 518q54 0 96 -21q33 -16 58 -45q31 -34 43 -74.5t12 -120.5q0 -83 -11.5 -122.5t-43.5 -74.5q-26 -29 -57 -45q-42 -21 -97 -21q-54 0 -96 21q-31 16 -58 45q-31 35 -43 75t-12 122q0 79 12.5 120t42.5 75q27 29 58 45q42 21 96 21zM231 415q-26 0 -48 -10t-35 -29
t-18.5 -43.5t-5.5 -75.5q0 -56 5 -78t20 -45q26 -37 82 -37q27 0 49 10t33 27q15 21 20 43.5t5 78.5q0 54 -5 77t-20 45q-10 15 -33.5 26t-48.5 11z" />
    <glyph glyph-name="p" unicode="p" horiz-adv-x="465" 
d="M132 512v-53q25 27 58.5 43t72.5 16q44 0 78.5 -18t56.5 -47t29.5 -67.5t7.5 -129.5q0 -95 -7 -131t-29.5 -65.5t-56.5 -47.5t-79 -18q-39 0 -69 15t-62 46v-262h-102v719h102zM232 415q-49 0 -73 -30q-27 -34 -27 -129t25 -127t75 -32q64 0 86 50q15 34 15 109
q0 98 -24.5 128.5t-76.5 30.5z" />
    <glyph glyph-name="q" unicode="q" horiz-adv-x="470" 
d="M205 -6q-44 0 -78.5 18t-56.5 47t-29.5 67.5t-7.5 129.5q0 95 7 131t29.5 65.5t56.5 47.5t79 18q38 0 71.5 -15.5t59.5 -43.5v53h102v-719h-102v262q-30 -29 -62 -45t-69 -16zM236 415q-64 0 -86 -50q-15 -34 -15 -109q0 -98 26 -130q23 -29 75 -29q49 0 74.5 32
t25.5 127t-25 127t-75 32z" />
    <glyph glyph-name="r" unicode="r" horiz-adv-x="364" 
d="M141 512v-54q51 60 134 60q31 0 55.5 -9.5t50.5 -29.5l-74 -89q-33 25 -67 25q-41 0 -68 -25q-31 -29 -31 -82v-308h-102v512h102z" />
    <glyph glyph-name="s" unicode="s" horiz-adv-x="450" 
d="M240 91q46 0 73 16.5t27 49.5q0 25 -16.5 36.5t-45.5 13.5l-90 8q-63 0 -104.5 40.5t-41.5 105.5q0 75 52.5 116t136.5 41q63 0 111.5 -18t87.5 -52l-63 -74q-33 23 -64.5 35t-71.5 12q-47 0 -67 -16t-20 -45q0 -20 15.5 -34.5t51.5 -14.5l84 -6q74 0 113 -46
q34 -40 34 -107q0 -73 -59.5 -115.5t-150.5 -42.5q-127 0 -223 92l71 71q33 -33 72 -49.5t88 -16.5z" />
    <glyph glyph-name="t" unicode="t" horiz-adv-x="279" 
d="M179 668v-156h74v-79h-74v-298q0 -38 36 -38h38v-97h-53q-55 0 -89 33t-34 93v307h-51v79h51v156h102z" />
    <glyph glyph-name="u" unicode="u" horiz-adv-x="487" 
d="M143 512v-305q0 -52 28 -81t73 -29q44 0 72 29t28 81v305h102v-512h-102v55q-51 -61 -133 -61q-66 0 -115 45q-55 51 -55 133v340h102z" />
    <glyph glyph-name="v" unicode="v" horiz-adv-x="512" 
d="M136 512l119 -358l121 358h108l-186 -512h-84l-186 512h108z" />
    <glyph glyph-name="w" unicode="w" horiz-adv-x="783" 
d="M284 0h-90l-162 512h108l97 -358l117 358h74l115 -358l99 358h108l-162 -512h-90l-106 359z" />
    <glyph glyph-name="x" unicode="x" horiz-adv-x="514" 
d="M159 512l101 -166l101 166h122l-166 -250l173 -262h-122l-108 171l-108 -171h-122l173 262l-166 250h122z" />
    <glyph glyph-name="y" unicode="y" 
d="M134 512l120 -358l122 358h108l-218 -618q-20 -56 -58 -80q-34 -21 -85 -21h-34v97h30q21 0 37.5 11t23.5 33l28 86l-182 492h108z" />
    <glyph glyph-name="z" unicode="z" horiz-adv-x="439" 
d="M285 421h-240v91h364v-82l-254 -333h254v-97h-378v82z" />
    <glyph glyph-name="braceleft" unicode="{" horiz-adv-x="314" 
d="M105 463v144q0 52 28 82t70 30h85v-67h-49q-23 0 -33.5 -23.5t-10.5 -59.5v-131q0 -58 -32 -96q-22 -26 -46 -33q15 -6 31 -20q47 -41 47 -112v-130q0 -35 11 -59t33 -24h49v-67h-85q-42 0 -70 30t-28 82v143q0 53 -20.5 88t-57.5 35v66q37 0 57.5 35t20.5 87z" />
    <glyph glyph-name="bar" unicode="|" horiz-adv-x="185" 
d="M132 725v-731h-78v731h78z" />
    <glyph glyph-name="braceright" unicode="}" horiz-adv-x="310" 
d="M73 -36q23 0 33.5 23.5t10.5 59.5v131q0 58 32 96q22 26 46 33q-15 6 -31 20q-47 41 -47 112v130q0 35 -11 59t-33 24h-49v67h85q42 0 70 -30t28 -82v-142q0 -53 21 -88.5t57 -35.5v-66q-37 0 -57.5 -35t-20.5 -86v-145q0 -52 -28 -82t-70 -30h-85v67h49z" />
    <glyph glyph-name="asciitilde" unicode="~" horiz-adv-x="562" 
d="M175 329q26 0 54 -9q20 -6 55.5 -23t55.5 -25q30 -12 48 -12q26 0 50 23q16 15 38 49l36 -63q-20 -39 -45 -60q-34 -28 -80 -28q-23 0 -49 8.5t-62 24.5q-28 12 -56.5 24t-45.5 12q-31 0 -60 -33q-10 -12 -28 -38l-36 62q20 39 45 60q34 28 80 28z" />
    <glyph glyph-name="Adieresis" unicode="&#xc4;" horiz-adv-x="602" 
d="M166 161l-55 -161h-114l259 719h90l259 -719h-114l-55 161h-270zM443 878v-109h-108v109h108zM267 878v-109h-108v109h108zM302 572l-105 -314h208z" />
    <glyph glyph-name="Aring" unicode="&#xc5;" horiz-adv-x="602" 
d="M166 161l-55 -161h-114l259 719h90l259 -719h-114l-55 161h-270zM404 844q0 -44 -30 -74t-73 -30t-73 30t-30 74q0 43 30 73t73 30t73 -30t30 -73zM302 572l-105 -314h208zM364 844q0 27 -18 45t-45 18t-45 -18t-18 -45t18.5 -45.5t44.5 -18.5q27 0 45 18t18 46z" />
    <glyph glyph-name="Ccedilla" unicode="&#xc7;" horiz-adv-x="512" 
d="M35 123q-19 33 -25 74.5t-6 162.5q0 126 5.5 162t25.5 74q29 53 82 88q63 41 141 41q98 0 167 -62q66 -59 83 -151h-114q-13 44 -50 74t-86 30q-37 0 -64 -14t-46 -38q-22 -29 -29 -65t-7 -139q0 -108 6.5 -141t29.5 -63q17 -23 45.5 -38t64.5 -15q91 0 136 98h114
q-18 -88 -75 -141t-138 -64l-42 -57q16 4 29 4q41 0 64.5 -21.5t23.5 -54.5q0 -46 -37 -72q-33 -23 -86 -23q-21 0 -47.5 6.5t-53.5 17.5l18 42q14 -5 34.5 -10t35.5 -5q28 0 43 10t15 33q0 22 -17.5 29.5t-31.5 7.5q-20 0 -38 -11l-22 19l60 83q-72 0 -131 42
q-48 34 -77 87z" />
    <glyph glyph-name="Eacute" unicode="&#xc9;" horiz-adv-x="516" 
d="M464 719v-103h-347v-205h296v-97h-296v-211h347v-103h-455v719h455zM391 902l-142 -147h-84l92 147h134z" />
    <glyph glyph-name="Ntilde" unicode="&#xd1;" horiz-adv-x="616" 
d="M143 719l322 -511l2 511h108v-719h-102l-322 511l-2 -511h-108v719h102zM243 882q22 0 54 -12q69 -26 82 -26q17 0 29.5 9.5t17.5 34.5h60q-9 -50 -34 -81q-29 -36 -76 -36q-28 0 -77.5 18.5t-66.5 18.5q-14 0 -28 -10.5t-14 -32.5h-60q7 54 37.5 85.5t75.5 31.5z" />
    <glyph glyph-name="Odieresis" unicode="&#xd6;" horiz-adv-x="568" 
d="M284 725q78 0 141 -41q53 -34 82 -88q19 -35 25 -75t6 -161q0 -125 -5.5 -163t-25.5 -74q-28 -53 -82 -88q-63 -41 -141 -41t-141 41q-53 34 -82 88q-19 35 -25 75.5t-6 161.5q0 126 5.5 162t25.5 74q29 53 82 88q63 41 141 41zM426 878v-109h-108v109h108zM250 878v-109
h-108v109h108zM284 103q37 0 64 14t47.5 40.5t27.5 63t7 139.5q0 106 -6.5 140.5t-29.5 63.5q-17 23 -43 36q-31 16 -67 16q-37 0 -64 -14t-46 -38q-22 -29 -29 -65t-7 -139q0 -108 6.5 -141t29.5 -63q17 -23 45.5 -38t64.5 -15z" />
    <glyph glyph-name="Udieresis" unicode="&#xdc;" horiz-adv-x="588" 
d="M149 719v-463q0 -73 40 -113t105 -40q64 0 104.5 40.5t40.5 112.5v463h108v-476q0 -110 -72.5 -179.5t-180.5 -69.5t-179 68q-74 71 -74 181v476h108zM436 878v-109h-108v109h108zM260 878v-109h-108v109h108z" />
    <glyph glyph-name="aacute" unicode="&#xe1;" horiz-adv-x="436" 
d="M193 -6q-83 0 -131 44t-48 112q0 66 41 107q45 45 124 45h141v54q0 35 -24 50t-80 15q-41 0 -61.5 -8t-34.5 -31l-80 61q29 40 70.5 57.5t100.5 17.5q101 0 152 -36q59 -42 59 -133v-349h-102v45q-17 -26 -47 -38.5t-80 -12.5zM387 725l-142 -147h-84l92 147h134z
M198 217q-44 0 -66 -16t-22 -45t23 -47t73 -18q68 0 89 14q25 17 25 75v37h-122z" />
    <glyph glyph-name="agrave" unicode="&#xe0;" horiz-adv-x="436" 
d="M193 -6q-83 0 -131 44t-48 112q0 66 41 107q45 45 124 45h141v54q0 35 -24 50t-80 15q-41 0 -61.5 -8t-34.5 -31l-80 61q29 40 70.5 57.5t100.5 17.5q101 0 152 -36q59 -42 59 -133v-349h-102v45q-17 -26 -47 -38.5t-80 -12.5zM223 725l92 -147h-84l-142 147h134z
M198 217q-44 0 -66 -16t-22 -45t23 -47t73 -18q68 0 89 14q25 17 25 75v37h-122z" />
    <glyph glyph-name="acircumflex" unicode="&#xe2;" horiz-adv-x="436" 
d="M193 -6q-83 0 -131 44t-48 112q0 66 41 107q45 45 124 45h141v54q0 35 -24 50t-80 15q-41 0 -61.5 -8t-34.5 -31l-80 61q29 40 70.5 57.5t100.5 17.5q101 0 152 -36q59 -42 59 -133v-349h-102v45q-17 -26 -47 -38.5t-80 -12.5zM171 578h-96l106 147h114l106 -147h-96
l-67 87zM198 217q-44 0 -66 -16t-22 -45t23 -47t73 -18q68 0 89 14q25 17 25 75v37h-122z" />
    <glyph glyph-name="adieresis" unicode="&#xe4;" horiz-adv-x="436" 
d="M193 -6q-83 0 -131 44t-48 112q0 66 41 107q45 45 124 45h141v54q0 35 -24 50t-80 15q-41 0 -61.5 -8t-34.5 -31l-80 61q29 40 70.5 57.5t100.5 17.5q101 0 152 -36q59 -42 59 -133v-349h-102v45q-17 -26 -47 -38.5t-80 -12.5zM380 701v-109h-108v109h108zM204 701v-109
h-108v109h108zM198 217q-44 0 -66 -16t-22 -45t23 -47t73 -18q68 0 89 14q25 17 25 75v37h-122z" />
    <glyph glyph-name="atilde" unicode="&#xe3;" horiz-adv-x="436" 
d="M193 -6q-83 0 -131 44t-48 112q0 66 41 107q45 45 124 45h141v54q0 35 -24 50t-80 15q-41 0 -61.5 -8t-34.5 -31l-80 61q29 40 70.5 57.5t100.5 17.5q101 0 152 -36q59 -42 59 -133v-349h-102v45q-17 -26 -47 -38.5t-80 -12.5zM173 705q22 0 54 -12q69 -26 82 -26
q17 0 29.5 9.5t17.5 34.5h60q-9 -50 -34 -81q-29 -36 -76 -36q-28 0 -77.5 18.5t-66.5 18.5q-14 0 -28 -10.5t-14 -32.5h-60q7 54 37.5 85.5t75.5 31.5zM198 217q-44 0 -66 -16t-22 -45t23 -47t73 -18q68 0 89 14q25 17 25 75v37h-122z" />
    <glyph glyph-name="aring" unicode="&#xe5;" horiz-adv-x="436" 
d="M193 -6q-83 0 -131 44t-48 112q0 66 41 107q45 45 124 45h141v54q0 35 -24 50t-80 15q-41 0 -61.5 -8t-34.5 -31l-80 61q29 40 70.5 57.5t100.5 17.5q101 0 152 -36q59 -42 59 -133v-349h-102v45q-17 -26 -47 -38.5t-80 -12.5zM341 667q0 -44 -30 -74t-73 -30t-73 30
t-30 74q0 43 30 73t73 30t73 -30t30 -73zM198 217q-44 0 -66 -16t-22 -45t23 -47t73 -18q68 0 89 14q25 17 25 75v37h-122zM301 667q0 27 -18 45t-45 18t-45 -18t-18 -45t18.5 -45.5t44.5 -18.5q27 0 45 18t18 46z" />
    <glyph glyph-name="ccedilla" unicode="&#xe7;" horiz-adv-x="459" 
d="M23 256q0 131 71 201q62 61 159 61q54 0 100.5 -24t81.5 -65l-75 -67q-19 24 -45.5 38.5t-57.5 14.5q-64 0 -98 -38.5t-34 -120.5q0 -81 34 -120t98 -39q30 0 56.5 14t46.5 39l75 -67q-29 -35 -66 -58t-82 -30l-42 -56q16 4 29 4q41 0 64.5 -21.5t23.5 -54.5
q0 -46 -37 -72q-33 -23 -86 -23q-21 0 -47.5 6.5t-53.5 17.5l18 42q14 -5 34.5 -10t35.5 -5q28 0 43 10t15 33q0 22 -17.5 29.5t-31.5 7.5q-20 0 -38 -11l-22 19l60 83q-89 0 -147 64q-65 71 -65 198z" />
    <glyph glyph-name="eacute" unicode="&#xe9;" horiz-adv-x="457" 
d="M242 91q64 0 111 49l74 -63q-36 -42 -83.5 -62.5t-99.5 -20.5q-94 0 -151 51q-74 66 -74 210q0 137 67 206q56 57 142 57q87 0 146 -58q63 -62 63 -158v-85h-316q0 -61 33.5 -93.5t87.5 -32.5zM377 725l-142 -147h-84l92 147h134zM228 421q-47 0 -77 -31t-30 -88h214
q0 57 -30 88t-77 31z" />
    <glyph glyph-name="egrave" unicode="&#xe8;" horiz-adv-x="457" 
d="M242 91q64 0 111 49l74 -63q-36 -42 -83.5 -62.5t-99.5 -20.5q-94 0 -151 51q-74 66 -74 210q0 137 67 206q56 57 142 57q87 0 146 -58q63 -62 63 -158v-85h-316q0 -61 33.5 -93.5t87.5 -32.5zM213 725l92 -147h-84l-142 147h134zM228 421q-47 0 -77 -31t-30 -88h214
q0 57 -30 88t-77 31z" />
    <glyph glyph-name="ecircumflex" unicode="&#xea;" horiz-adv-x="457" 
d="M242 91q64 0 111 49l74 -63q-36 -42 -83.5 -62.5t-99.5 -20.5q-94 0 -151 51q-74 66 -74 210q0 137 67 206q56 57 142 57q87 0 146 -58q63 -62 63 -158v-85h-316q0 -61 33.5 -93.5t87.5 -32.5zM161 578h-96l106 147h114l106 -147h-96l-67 87zM228 421q-47 0 -77 -31
t-30 -88h214q0 57 -30 88t-77 31z" />
    <glyph glyph-name="edieresis" unicode="&#xeb;" horiz-adv-x="457" 
d="M242 91q64 0 111 49l74 -63q-36 -42 -83.5 -62.5t-99.5 -20.5q-94 0 -151 51q-74 66 -74 210q0 137 67 206q56 57 142 57q87 0 146 -58q63 -62 63 -158v-85h-316q0 -61 33.5 -93.5t87.5 -32.5zM370 701v-109h-108v109h108zM194 701v-109h-108v109h108zM228 421
q-47 0 -77 -31t-30 -88h214q0 57 -30 88t-77 31z" />
    <glyph glyph-name="iacute" unicode="&#xed;" horiz-adv-x="171" 
d="M100 512v-512h-102v512h102zM198 725l-142 -147h-84l92 147h134z" />
    <glyph glyph-name="igrave" unicode="&#xec;" horiz-adv-x="171" 
d="M172 512v-512h-102v512h102zM106 725l92 -147h-84l-142 147h134z" />
    <glyph glyph-name="icircumflex" unicode="&#xee;" horiz-adv-x="171" 
d="M136 512v-512h-102v512h102zM18 578h-96l106 147h114l106 -147h-96l-67 87z" />
    <glyph glyph-name="idieresis" unicode="&#xef;" horiz-adv-x="171" 
d="M136 512v-512h-102v512h102zM227 701v-109h-108v109h108zM51 701v-109h-108v109h108z" />
    <glyph glyph-name="ntilde" unicode="&#xf1;" horiz-adv-x="484" 
d="M142 512v-54q51 60 134 60q65 0 114 -45q55 -50 55 -133v-340h-102v305q0 51 -27.5 80.5t-72.5 29.5t-73 -29t-28 -81v-305h-102v512h102zM178 705q22 0 54 -12q69 -26 82 -26q17 0 29.5 9.5t17.5 34.5h60q-9 -50 -34 -81q-29 -36 -76 -36q-28 0 -77.5 18.5t-66.5 18.5
q-14 0 -28 -10.5t-14 -32.5h-60q7 54 37.5 85.5t75.5 31.5z" />
    <glyph glyph-name="oacute" unicode="&#xf3;" horiz-adv-x="463" 
d="M231 518q54 0 96 -21q33 -16 58 -45q31 -34 43 -74.5t12 -120.5q0 -83 -11.5 -122.5t-43.5 -74.5q-26 -29 -57 -45q-42 -21 -97 -21q-54 0 -96 21q-31 16 -58 45q-31 35 -43 75t-12 122q0 79 12.5 120t42.5 75q27 29 58 45q42 21 96 21zM380 725l-142 -147h-84l92 147
h134zM231 415q-26 0 -48 -10t-35 -29t-18.5 -43.5t-5.5 -75.5q0 -56 5 -78t20 -45q26 -37 82 -37q27 0 49 10t33 27q15 21 20 43.5t5 78.5q0 54 -5 77t-20 45q-10 15 -33.5 26t-48.5 11z" />
    <glyph glyph-name="ograve" unicode="&#xf2;" horiz-adv-x="463" 
d="M231 518q54 0 96 -21q33 -16 58 -45q31 -34 43 -74.5t12 -120.5q0 -83 -11.5 -122.5t-43.5 -74.5q-26 -29 -57 -45q-42 -21 -97 -21q-54 0 -96 21q-31 16 -58 45q-31 35 -43 75t-12 122q0 79 12.5 120t42.5 75q27 29 58 45q42 21 96 21zM216 725l92 -147h-84l-142 147
h134zM231 415q-26 0 -48 -10t-35 -29t-18.5 -43.5t-5.5 -75.5q0 -56 5 -78t20 -45q26 -37 82 -37q27 0 49 10t33 27q15 21 20 43.5t5 78.5q0 54 -5 77t-20 45q-10 15 -33.5 26t-48.5 11z" />
    <glyph glyph-name="ocircumflex" unicode="&#xf4;" horiz-adv-x="463" 
d="M231 518q54 0 96 -21q33 -16 58 -45q31 -34 43 -74.5t12 -120.5q0 -83 -11.5 -122.5t-43.5 -74.5q-26 -29 -57 -45q-42 -21 -97 -21q-54 0 -96 21q-31 16 -58 45q-31 35 -43 75t-12 122q0 79 12.5 120t42.5 75q27 29 58 45q42 21 96 21zM164 578h-96l106 147h114
l106 -147h-96l-67 87zM231 415q-26 0 -48 -10t-35 -29t-18.5 -43.5t-5.5 -75.5q0 -56 5 -78t20 -45q26 -37 82 -37q27 0 49 10t33 27q15 21 20 43.5t5 78.5q0 54 -5 77t-20 45q-10 15 -33.5 26t-48.5 11z" />
    <glyph glyph-name="odieresis" unicode="&#xf6;" horiz-adv-x="463" 
d="M231 518q54 0 96 -21q33 -16 58 -45q31 -34 43 -74.5t12 -120.5q0 -83 -11.5 -122.5t-43.5 -74.5q-26 -29 -57 -45q-42 -21 -97 -21q-54 0 -96 21q-31 16 -58 45q-31 35 -43 75t-12 122q0 79 12.5 120t42.5 75q27 29 58 45q42 21 96 21zM373 701v-109h-108v109h108z
M197 701v-109h-108v109h108zM231 415q-26 0 -48 -10t-35 -29t-18.5 -43.5t-5.5 -75.5q0 -56 5 -78t20 -45q26 -37 82 -37q27 0 49 10t33 27q15 21 20 43.5t5 78.5q0 54 -5 77t-20 45q-10 15 -33.5 26t-48.5 11z" />
    <glyph glyph-name="otilde" unicode="&#xf5;" horiz-adv-x="463" 
d="M231 518q54 0 96 -21q33 -16 58 -45q31 -34 43 -74.5t12 -120.5q0 -83 -11.5 -122.5t-43.5 -74.5q-26 -29 -57 -45q-42 -21 -97 -21q-54 0 -96 21q-31 16 -58 45q-31 35 -43 75t-12 122q0 79 12.5 120t42.5 75q27 29 58 45q42 21 96 21zM166 705q22 0 54 -12
q69 -26 82 -26q17 0 29.5 9.5t17.5 34.5h60q-9 -50 -34 -81q-29 -36 -76 -36q-28 0 -77.5 18.5t-66.5 18.5q-14 0 -28 -10.5t-14 -32.5h-60q7 54 37.5 85.5t75.5 31.5zM231 415q-26 0 -48 -10t-35 -29t-18.5 -43.5t-5.5 -75.5q0 -56 5 -78t20 -45q26 -37 82 -37q27 0 49 10
t33 27q15 21 20 43.5t5 78.5q0 54 -5 77t-20 45q-10 15 -33.5 26t-48.5 11z" />
    <glyph glyph-name="uacute" unicode="&#xfa;" horiz-adv-x="487" 
d="M143 512v-305q0 -52 28 -81t73 -29q44 0 72 29t28 81v305h102v-512h-102v55q-51 -61 -133 -61q-66 0 -115 45q-55 51 -55 133v340h102zM387 725l-142 -147h-84l92 147h134z" />
    <glyph glyph-name="ugrave" unicode="&#xf9;" horiz-adv-x="487" 
d="M143 512v-305q0 -52 28 -81t73 -29q44 0 72 29t28 81v305h102v-512h-102v55q-51 -61 -133 -61q-66 0 -115 45q-55 51 -55 133v340h102zM223 725l92 -147h-84l-142 147h134z" />
    <glyph glyph-name="ucircumflex" unicode="&#xfb;" horiz-adv-x="487" 
d="M143 512v-305q0 -52 28 -81t73 -29q44 0 72 29t28 81v305h102v-512h-102v55q-51 -61 -133 -61q-66 0 -115 45q-55 51 -55 133v340h102zM171 578h-96l106 147h114l106 -147h-96l-67 87z" />
    <glyph glyph-name="udieresis" unicode="&#xfc;" horiz-adv-x="487" 
d="M143 512v-305q0 -52 28 -81t73 -29q44 0 72 29t28 81v305h102v-512h-102v55q-51 -61 -133 -61q-66 0 -115 45q-55 51 -55 133v340h102zM380 701v-109h-108v109h108zM204 701v-109h-108v109h108z" />
    <glyph glyph-name="dagger" unicode="&#x2020;" horiz-adv-x="412" 
d="M-12 394v79h170v246h96v-246h170v-79h-170v-581h-96v581h-170z" />
    <glyph glyph-name="degree" unicode="&#xb0;" horiz-adv-x="357" 
d="M322 581q0 -59 -42 -102t-101 -43t-101 42t-42 103q0 60 42 102t101 42t101 -42t42 -102zM271 581q0 38 -26.5 65.5t-65.5 27.5q-38 0 -65 -27t-27 -66t27 -66t65 -27t65 27t27 66z" />
    <glyph glyph-name="cent" unicode="&#xa2;" horiz-adv-x="437" 
d="M12 256q0 125 64 197q58 65 145 65v92h40v-92q50 -6 91.5 -29.5t71.5 -59.5l-75 -67q-16 20 -38 33.5t-50 19.5v-318q30 6 50 18.5t38 34.5l75 -67q-31 -37 -71 -60t-92 -29v-92h-40v92q-87 0 -145 65q-64 72 -64 197zM114 256q0 -73 27.5 -112t79.5 -47v318
q-52 -8 -79.5 -46t-27.5 -113z" />
    <glyph glyph-name="sterling" unicode="&#xa3;" horiz-adv-x="435" 
d="M52 370q-18 39 -26.5 76.5t-8.5 74.5q0 94 52 149t134 55q97 0 149 -58q49 -55 49 -149h-102q0 54 -24 82t-65 28q-42 0 -66.5 -28.5t-24.5 -80.5q0 -37 9.5 -76.5t25.5 -72.5h161v-67h-136q7 -23 12.5 -47t5.5 -42q0 -28 -7.5 -53t-23.5 -56q45 -7 72 -10.5t40 -3.5
q25 0 50 7.5t47 25.5l63 -80q-31 -26 -69.5 -38t-75.5 -12q-18 0 -94 10t-101 10q-23 0 -42.5 -4t-45.5 -16v97q34 20 73 20q9 23 13.5 44.5t4.5 41.5q0 23 -11 63q-4 13 -13 43h-80v67h55z" />
    <glyph glyph-name="section" unicode="&#xa7;" horiz-adv-x="439" 
d="M222 -97q35 0 57 21t22 58t-18 53t-83 38l-38 13q-81 28 -108.5 67.5t-27.5 118.5q0 72 19 107.5t79 61.5q-37 21 -51.5 49t-14.5 72q0 71 46.5 116.5t115.5 45.5q71 0 116 -42q50 -47 50 -132h-90q0 37 -19.5 60t-56.5 23q-36 0 -54 -18.5t-18 -44.5q0 -32 22 -49
q19 -14 81 -34q90 -30 122 -64q41 -44 41 -139q0 -67 -15 -97q-19 -37 -79 -70q42 -18 61 -53q16 -30 16 -76q0 -81 -52.5 -131.5t-129.5 -50.5q-70 0 -118 49q-51 52 -51 135h90q0 -40 22.5 -63.5t63.5 -23.5zM312 280q0 35 -4 50.5t-16 30.5t-29.5 23.5t-42.5 8.5
q-19 0 -39 -6.5t-32.5 -23t-16.5 -31.5t-4 -52q0 -31 3.5 -47.5t13.5 -31.5t29 -25.5t46 -10.5t45.5 10t29.5 25.5t14 31.5t3 48z" />
    <glyph glyph-name="bullet" unicode="&#x2022;" horiz-adv-x="464" 
d="M410 360q0 -74 -52 -127t-126 -53t-126 53t-52 127t51.5 126.5t126.5 52.5q74 0 126 -52t52 -127z" />
    <glyph glyph-name="paragraph" unicode="&#xb6;" horiz-adv-x="564" 
d="M63 525q0 97 60 145.5t168 48.5h210v-906h-78v839h-72v-839h-78v524q-92 0 -151 54t-59 134z" />
    <glyph glyph-name="germandbls" unicode="&#xdf;" horiz-adv-x="498" 
d="M298 487q26 0 40 13.5t14 45.5q0 22 -3 34t-13 21t-35.5 15t-52.5 6q-54 0 -77.5 -16t-23.5 -48v-558h-102v558q0 82 58 124.5t155 42.5q88 0 142 -46.5t54 -124.5q0 -41 -18.5 -69.5t-54.5 -44.5q73 -29 73 -112v-183q0 -61 -39 -103t-102 -42h-63v97h36q37 0 51.5 11.5
t14.5 41.5v180q0 60 -56 60h-59v97h61z" />
    <glyph glyph-name="registered" unicode="&#xae;" horiz-adv-x="739" 
d="M731 360q0 -152 -106 -259t-256 -107t-256 107t-106 259q0 151 106 258t256 107q151 0 256.5 -106.5t105.5 -258.5zM653 360q0 127 -80.5 209.5t-203.5 82.5t-203.5 -82.5t-80.5 -209.5q0 -128 80.5 -210.5t203.5 -82.5t203.5 82.5t80.5 210.5zM392 583q74 0 109.5 -30.5
t35.5 -96.5q0 -60 -32 -92q-27 -27 -76 -33l121 -174h-84l-121 172h-41v-172h-72v426h160zM354 396q54 0 77 9q34 13 34 51q0 33 -27 46.5t-68 13.5h-66v-120h50z" />
    <glyph glyph-name="copyright" unicode="&#xa9;" horiz-adv-x="739" 
d="M731 360q0 -152 -106 -259t-256 -107t-256 107t-106 259q0 151 106 258t256 107q151 0 256.5 -106.5t105.5 -258.5zM653 360q0 127 -80.5 209.5t-203.5 82.5t-203.5 -82.5t-80.5 -209.5q0 -128 80.5 -210.5t203.5 -82.5t203.5 82.5t80.5 210.5zM382 126
q-101 0 -160.5 65.5t-59.5 168.5q0 104 57.5 168.5t159.5 64.5q75 0 126 -42.5t60 -122.5h-72q-8 40 -39 66t-74 26q-64 0 -102 -45t-38 -113q0 -66 39.5 -114.5t102.5 -48.5q42 0 73 27.5t38 69.5h72q-13 -79 -62.5 -124.5t-120.5 -45.5z" />
    <glyph glyph-name="trademark" unicode="&#x2122;" horiz-adv-x="942" 
d="M34 646v73h326v-73h-124v-343h-78v343h-124zM696 303h-51l-131 337l-2 -337h-78v416h122l115 -307l115 307h122v-416h-78v337z" />
    <glyph glyph-name="acute" unicode="&#xb4;" horiz-adv-x="279" 
d="M253 725l-142 -147h-84l92 147h134z" />
    <glyph glyph-name="dieresis" unicode="&#xa8;" horiz-adv-x="314" 
d="M299 701v-109h-108v109h108zM123 701v-109h-108v109h108z" />
    <glyph glyph-name="notequal" unicode="&#x2260;" horiz-adv-x="471" 
d="M-166 130q0 -31 24.5 -48.5t59.5 -17.5l4 1q55 0 97 27q48 31 48 78q0 24 -78 153q-37 61 -37 106q0 52 28 102q24 43 67 81.5t97 65.5q60 30 110 30q34 0 57 -18t23 -52l-3 -21q43 39 96 65q59 29 110 29q34 0 57 -18t23 -52q0 -40 -34 -86q-25 -34 -67 -67
q-28 -22 -62 -42q-46 -27 -69 -27q-10 0 -19 7t-9 16q2 22 33.5 33t55.5 23.5t47 31.5q36 28 55 57q16 24 16 43q0 32 -35 32q-31 0 -76 -21q-38 -18 -71.5 -43.5t-60.5 -66.5q-31 -47 -31 -88q0 -52 59.5 -142.5t59.5 -129.5q0 -69 -69 -114q-61 -40 -133 -40
q-49 0 -80 13.5t-48 40.5q-31 -28 -72.5 -42.5t-82.5 -14.5q-73 0 -113 36q-35 32 -35 79q0 43 29 76t75 33q24 0 24 -24q0 -14 -22 -23q-48 -20 -48 -61zM593 327q-31 -50 -66 -115q-41 -75 -63 -151q-6 -23 -9 -28q-8 -15 -22 -15q-10 0 -16 7t-6 17q0 47 68.5 175.5
t94.5 128.5q8 0 13.5 -5.5t5.5 -13.5zM632 441q-23 0 -23 25q0 20 21.5 46.5t40.5 26.5q24 0 24 -24q0 -20 -22 -47t-41 -27zM187 217q0 -15 -28 -26t-35 -25t-7 -40q0 -27 25 -43t59 -16l4 1q55 0 97 27q48 31 48 78q0 24 -78 153q-37 61 -37 106q0 33 11 66l-13 -13
q-28 -22 -62 -42q-46 -27 -69 -27q-10 0 -19 7t-9 16q1 10 9 18.5t26 15.5q30 10 54 22.5t47 31.5q36 28 55 57q16 24 16 43q0 32 -35 32q-31 0 -76 -21q-38 -18 -71.5 -43.5t-60.5 -66.5q-31 -47 -31 -88q0 -47 39 -112q32 -53 64 -105q15 10 26 14t27 4q24 0 24 -24z" />
    <glyph glyph-name="AE" unicode="&#xc6;" horiz-adv-x="870" 
d="M189 161l-86 -161h-114l387 719h505v-103h-347v-205h296v-97h-296v-211h347v-103h-455v161h-237zM426 622l-186 -364h186v364z" />
    <glyph glyph-name="Oslash" unicode="&#xd8;" horiz-adv-x="567" 
d="M61 123q-19 33 -25 74.5t-6 162.5q0 126 5.5 162t25.5 74q29 53 82 88q63 41 141 41q42 0 78 -11.5t68 -32.5l49 89l46 -26l-54 -99q21 -22 36 -49q19 -35 25 -75t6 -161q0 -127 -5.5 -163t-25.5 -74q-29 -54 -82 -88q-63 -41 -141 -41q-44 0 -79.5 11.5t-67.5 34.5
l-50 -91l-46 26l55 100q-24 27 -35 48zM284 616q-37 0 -64.5 -14.5t-45.5 -37.5q-23 -30 -29.5 -63.5t-6.5 -140.5q0 -89 3 -121.5t15 -54.5l220 399q-18 16 -41 24.5t-51 8.5zM284 103q37 0 64 14t47.5 40.5t27.5 63t7 139.5q0 91 -3.5 122.5t-15.5 54.5l-220 -399
q17 -16 40.5 -25.5t52.5 -9.5z" />
    <glyph glyph-name="infinity" unicode="&#x221e;" horiz-adv-x="638" 
d="M404 201q32 -23 77 -23q52 0 84.5 35t32.5 90q0 56 -30 89.5t-80 33.5q-39 0 -72 -36q-17 -17 -33.5 -46t-36.5 -73q25 -48 58 -70zM234 396q-33 24 -76 24q-51 0 -84 -35t-33 -90q0 -54 29.5 -88.5t76.5 -34.5q40 0 71.5 31.5t74.5 123.5q-26 46 -59 69zM257 144
q-38 -30 -85 -30q-66 0 -111 52.5t-45 131.5q0 83 41 134.5t105 51.5q47 0 82.5 -29.5t65.5 -94.5q31 62 69.5 93t87.5 31q63 0 109 -53t46 -131q0 -83 -40.5 -134.5t-104.5 -51.5q-50 0 -84 30q-34 27 -64 94q-33 -62 -72 -94z" />
    <glyph glyph-name="plusminus" unicode="&#xb1;" horiz-adv-x="558" 
d="M26 286v79h214v146h78v-146h214v-79h-214v-147h-78v147h-214zM532 79v-79h-506v79h506z" />
    <glyph glyph-name="lessequal" unicode="&#x2264;" horiz-adv-x="500" 
d="M18 18v68h463v-68h-463zM481 173v-70l-462 145v65l462 145v-70l-344 -108z" />
    <glyph glyph-name="greaterequal" unicode="&#x2265;" horiz-adv-x="512" 
d="M25 18v68h463v-68h-463zM25 103v70l344 107l-344 108v70l463 -145v-65z" />
    <glyph glyph-name="yen" unicode="&#xa5;" horiz-adv-x="526" 
d="M65 162v66h150v68l-14 27h-136v67h104l-160 329h108l146 -319l146 319h108l-160 -329h104v-67h-136l-14 -27v-68h150v-66h-150v-162h-96v162h-150z" />
    <glyph glyph-name="mu" unicode="&#xb5;" horiz-adv-x="492" 
d="M145 512v-305q0 -52 28 -81t73 -29q44 0 72 29t28 81v305h102v-512h-102v55q-51 -61 -133 -61q-35 0 -68 15v-216h-102v719h102z" />
    <glyph glyph-name="partialdiff" unicode="&#x2202;" horiz-adv-x="433" 
d="M136 289q-33 -60 -33 -161q0 -55 22 -87t62 -32q54 0 87.5 61t33.5 154q0 61 -22 93q-20 32 -63 32q-52 0 -87 -60zM334 346l3 89q0 85 -15.5 126t-47.5 41q-18 0 -50 -35t-56 -35q-16 0 -25.5 7.5t-11.5 24.5q0 30 29.5 50.5t72.5 20.5q79 0 124.5 -71.5t45.5 -196.5
q0 -84 -15.5 -150.5t-48.5 -121.5q-63 -108 -158 -108q-68 0 -110 51t-42 137q0 82 53 143.5t125 61.5q44 0 72.5 -22t45.5 -71q4 14 6.5 28t2.5 31z" />
    <glyph glyph-name="summation" unicode="&#x3a3;" horiz-adv-x="676" 
d="M622 514h-44q-32 105 -85 144t-169 39h-132l315 -431l-344 -394h187q122 0 172.5 31.5t82.5 116.5h45l-30 -130l-2 -7q-27 -99 -111 -99h-482l389 446l-375 514h460q65 0 82.5 -14.5t25.5 -86.5z" />
    <glyph glyph-name="product" unicode="&#x220f;" horiz-adv-x="762" 
d="M86 704h-88v40h767v-40h-88v-880h88v-40h-264v40h84v880h-407v-880h84v-40h-264v40h88v880z" />
    <glyph glyph-name="pi" unicode="&#x3c0;" horiz-adv-x="571" 
d="M417 349q0 -53 -1 -86.5t-2 -63.5v-40q0 -84 8.5 -105t30.5 -21q26 0 41 29q8 15 12.5 37t4.5 52h25v-5q0 -80 -26 -118t-80 -38q-57 0 -80 39t-23 165l1 78l3 104l-50 1l-77 2q0 -234 -23 -311.5t-80 -77.5q-35 0 -52.5 29t-17.5 86v19h24q0 -27 9.5 -39.5t27.5 -12.5
q42 0 58 62q9 32 14.5 95.5t5.5 149.5h-22q-38 0 -59.5 -13.5t-27.5 -39.5h-23q0 34 10 57.5t28 38.5q35 27 121 27l102 -3l152 -3q34 0 49.5 7t16.5 21l23 1q0 -53 -23.5 -76.5t-74.5 -23.5h-14l-10 1z" />
    <glyph glyph-name="integral" unicode="&#x222b;" horiz-adv-x="399" 
d="M404 738q23 -20 23 -48q0 -20 -13 -34t-36 -14q-29 0 -44 32t-29 32q-57 0 -57 -310l-3 -98q0 -63 -4.5 -120t-11.5 -109q-12 -90 -31 -133q-24 -55 -62.5 -86t-81.5 -31q-35 0 -58 18.5t-23 48.5q0 22 12.5 34.5t36.5 12.5q29 0 44 -31t30 -32q57 0 57 324l2 84
q0 70 3.5 119t12.5 120t32 124.5t60.5 84.5t82.5 31q35 0 58 -19z" />
    <glyph glyph-name="ordfeminine" unicode="&#xaa;" horiz-adv-x="361" 
d="M167 410q-67 0 -100 26.5t-33 64.5q0 43 27.5 71.5t75.5 28.5h112v18q0 25 -18.5 32.5t-49.5 7.5q-37 0 -51 -5t-23 -19l-52 45q19 26 47 35.5t76 9.5q73 0 111 -23t38 -78v-210h-78v29q-24 -33 -82 -33zM169 540q-27 0 -42 -7.5t-15 -25.5q0 -15 19 -22.5t43 -7.5
q48 0 61.5 9t13.5 36v18h-80z" />
    <glyph glyph-name="ordmasculine" unicode="&#xba;" horiz-adv-x="360" 
d="M180 725q38 0 66 -10.5t48.5 -33t26.5 -44t6 -69.5q0 -47 -6 -69.5t-26 -44.5t-50 -33t-66 -11q-37 0 -65 10.5t-48.5 33t-27 45.5t-6.5 69q0 47 6 69t26 44q40 44 116 44zM179 477q36 0 55 24q10 13 12.5 24.5t2.5 42.5q0 30 -2.5 42t-12.5 24q-20 25 -54 25
q-17 0 -31 -6.5t-23.5 -18.5t-12.5 -25.5t-3 -40.5q0 -24 1.5 -37.5t13.5 -29.5q21 -24 54 -24z" />
    <glyph glyph-name="Omega" unicode="&#x3a9;" horiz-adv-x="725" 
d="M639 107q21 21 21 69h23v-176h-272v180q77 15 122.5 76.5t45.5 151.5q0 106 -59 168.5t-157 62.5t-157 -62.5t-59 -168.5q0 -92 43.5 -151.5t124.5 -76.5v-180h-272v176h23q0 -48 19 -67t69 -19h123v59q-118 21 -183 89t-65 170q0 122 91.5 194.5t242.5 72.5
q149 0 241.5 -73.5t92.5 -193.5q0 -100 -64 -168t-184 -91v-59h123q48 0 67 17z" />
    <glyph glyph-name="ae" unicode="&#xe6;" horiz-adv-x="718" 
d="M197 518q64 0 102.5 -14.5t62.5 -50.5q21 30 62 47.5t85 17.5q87 0 146 -58q63 -62 63 -158v-85h-316q0 -61 33.5 -93.5t87.5 -32.5q64 0 111 49l74 -63q-36 -42 -83.5 -62.5t-99.5 -20.5q-59 0 -98 16q-45 19 -79 63q-26 -40 -73 -61q-41 -18 -88 -18q-84 0 -135.5 40
t-51.5 116q0 62 40.5 107t111.5 45h154v54q0 35 -24 50t-80 15q-41 0 -61.5 -8t-34.5 -31l-80 61q29 40 70.5 57.5t100.5 17.5zM96 156q0 -29 23 -47t73 -18q68 0 89 14q25 17 25 75v37h-122q-44 0 -66 -16t-22 -45zM509 421q-47 0 -77 -31t-30 -88h214q0 57 -30 88t-77 31z
" />
    <glyph glyph-name="oslash" unicode="&#xf8;" horiz-adv-x="462" 
d="M22 257q0 82 11.5 121t43.5 74q26 29 57 45q42 21 97 21q33 0 57.5 -6.5t47.5 -19.5l44 77l44 -27l-47 -81q35 -35 49 -78t14 -126t-11.5 -122.5t-43.5 -74.5q-26 -29 -57 -45q-42 -21 -97 -21q-33 0 -57 6.5t-47 20.5l-45 -78l-44 27l47 83q-37 33 -50 80t-13 124z
M231 415q-26 0 -48 -10t-35 -29t-18.5 -43.5t-5.5 -75.5q0 -49 3 -69.5t13 -38.5l144 253q-24 13 -53 13zM231 97q26 0 48 10t35 29t18.5 44t5.5 76q0 48 -3 68.5t-13 39.5l-144 -253q23 -14 53 -14z" />
    <glyph glyph-name="questiondown" unicode="&#xbf;" horiz-adv-x="424" 
d="M263 334v-65q0 -35 -4.5 -54t-21.5 -43l-89 -126q-25 -34 -25 -66q0 -40 27 -65t59 -25q42 0 65 24q27 28 27 86h102v-20q0 -81 -56 -137t-133 -56q-78 0 -134 52q-59 55 -59 142q0 61 32 106l91 126q10 14 13.5 27.5t3.5 36.5v57h102zM263 512v-103h-102v103h102z" />
    <glyph glyph-name="exclamdown" unicode="&#xa1;" horiz-adv-x="219" 
d="M135 334l38 -541h-128l39 541h51zM160 512v-103h-102v103h102z" />
    <glyph glyph-name="logicalnot" unicode="&#xac;" horiz-adv-x="547" 
d="M21 317v79h506v-287h-78v208h-428z" />
    <glyph glyph-name="radical" unicode="&#x221a;" horiz-adv-x="521" 
d="M507 764l-290 -784h-32l-156 431l-61 -22l-12 39l138 48l125 -346l252 681h93v-47h-57z" />
    <glyph glyph-name="florin" unicode="&#x192;" horiz-adv-x="435" 
d="M97 378l12 79h88l27 153q11 62 60 91q41 24 103 24q23 0 46 -6l-15 -96q-25 5 -43 5q-48 0 -55 -47l-21 -124h90l-12 -79h-92l-71 -419q-12 -71 -44 -102q-36 -35 -108 -35q-31 0 -60 9l17 93q8 -2 22 -3.5t24 -1.5q40 0 47 39l71 420h-86z" />
    <glyph glyph-name="approxequal" unicode="&#x2248;" horiz-adv-x="587" 
d="M34 177q49 31 87 44.5t74 13.5q44 0 115 -24t99 -24t61.5 15t82.5 52v-78q-42 -28 -76.5 -41.5t-72.5 -13.5q-32 0 -104 23.5t-116 23.5q-28 0 -63 -15q-16 -7 -38.5 -20.5t-48.5 -32.5v77zM34 296q23 14 43.5 25t40.5 18q40 14 76 14q47 0 116 -23q20 -6 51 -15t48 -9
q27 0 60 14.5t84 51.5v-77q-41 -28 -76.5 -41.5t-72.5 -13.5q-33 0 -104.5 23.5t-110.5 23.5q-35 0 -66 -13.5t-89 -54.5v77z" />
    <glyph glyph-name="Delta" unicode="&#x2206;" horiz-adv-x="566" 
d="M440 45l-186 459l-187 -459h373zM-4 0l276 672h22l276 -672h-574z" />
    <glyph glyph-name="guillemotleft" unicode="&#xab;" horiz-adv-x="437" 
d="M230 381l-102 -101l102 -101v-103l-204 204l204 204v-103zM412 381l-102 -101l102 -101v-103l-204 204l204 204v-103z" />
    <glyph glyph-name="guillemotright" unicode="&#xbb;" horiz-adv-x="427" 
d="M304 280l-102 101v103l204 -204l-204 -204v103zM122 280l-102 101v103l204 -204l-204 -204v103z" />
    <glyph glyph-name="ellipsis" unicode="&#x2026;" horiz-adv-x="927" 
d="M182 103v-103h-102v103h102zM515 103v-103h-102v103h102zM848 103v-103h-102v103h102z" />
    <glyph glyph-name="nonbreakingspace" unicode="&#xa0;" horiz-adv-x="242" 
 />
    <glyph glyph-name="Agrave" unicode="&#xc0;" horiz-adv-x="602" 
d="M166 161l-55 -161h-114l259 719h90l259 -719h-114l-55 161h-270zM286 902l92 -147h-84l-142 147h134zM302 572l-105 -314h208z" />
    <glyph glyph-name="Atilde" unicode="&#xc3;" horiz-adv-x="602" 
d="M166 161l-55 -161h-114l259 719h90l259 -719h-114l-55 161h-270zM236 882q22 0 54 -12q69 -26 82 -26q17 0 29.5 9.5t17.5 34.5h60q-9 -50 -34 -81q-29 -36 -76 -36q-28 0 -77.5 18.5t-66.5 18.5q-14 0 -28 -10.5t-14 -32.5h-60q7 54 37.5 85.5t75.5 31.5zM302 572
l-105 -314h208z" />
    <glyph glyph-name="Otilde" unicode="&#xd5;" horiz-adv-x="555" 
d="M277 725q78 0 141 -41q53 -34 82 -88q19 -35 25 -75t6 -161q0 -125 -5.5 -163t-25.5 -74q-28 -53 -82 -88q-63 -41 -141 -41t-141 41q-53 34 -82 88q-19 35 -25 75.5t-6 161.5q0 126 5.5 162t25.5 74q29 53 82 88q63 41 141 41zM212 882q22 0 54 -12q69 -26 82 -26
q17 0 29.5 9.5t17.5 34.5h60q-9 -50 -34 -81q-29 -36 -76 -36q-28 0 -77.5 18.5t-66.5 18.5q-14 0 -28 -10.5t-14 -32.5h-60q7 54 37.5 85.5t75.5 31.5zM277 103q37 0 64 14t47.5 40.5t27.5 63t7 139.5q0 106 -6.5 140.5t-29.5 63.5q-17 23 -43 36q-31 16 -67 16
q-37 0 -64 -14t-46 -38q-22 -29 -29 -65t-7 -139q0 -108 6.5 -141t29.5 -63q17 -23 45.5 -38t64.5 -15z" />
    <glyph glyph-name="OE" unicode="&#x152;" horiz-adv-x="887" 
d="M273 -6q-78 0 -141 41q-53 34 -82 88q-19 35 -25 75.5t-6 161.5q0 126 5.5 162t25.5 74q29 53 82 88q63 41 141 41q43 0 81 -15t65 -46v55h447v-103h-339v-205h288v-97h-288v-211h341v-103h-449v57q-23 -28 -65 -45.5t-81 -17.5zM273 103q37 0 64 14t47.5 40.5t27.5 63
t7 139.5q0 107 -6.5 140.5t-29.5 63.5q-17 22 -46 37t-64 15q-37 0 -64 -14t-46 -38q-22 -29 -29 -65t-7 -139q0 -108 6.5 -141t29.5 -63q17 -23 45.5 -38t64.5 -15z" />
    <glyph glyph-name="oe" unicode="&#x153;" horiz-adv-x="745" 
d="M424 217q0 -61 33.5 -93.5t87.5 -32.5q64 0 111 49l74 -63q-36 -42 -83.5 -62.5t-99.5 -20.5q-58 0 -103.5 22.5t-69.5 59.5q-27 -38 -68.5 -60t-90.5 -22q-54 0 -96 21q-33 16 -58 45q-31 34 -43 75t-12 122q0 82 11.5 121t43.5 74q26 29 57 45q42 21 97 21
q47 0 87 -20.5t72 -59.5q32 39 71 59.5t86 20.5q87 0 146 -58q63 -62 63 -158v-85h-316zM215 421q-27 0 -49 -10t-33 -27q-15 -20 -20 -44t-5 -83t5 -83t20 -46q10 -15 33.5 -26t48.5 -11q26 0 48 10t35 29t18.5 45t5.5 81q0 60 -5 83t-20 45q-26 37 -82 37zM531 421
q-47 0 -77 -31t-30 -88h214q0 57 -30 88t-77 31z" />
    <glyph glyph-name="endash" unicode="&#x2013;" horiz-adv-x="560" 
d="M530 328v-97h-500v97h500z" />
    <glyph glyph-name="emdash" unicode="&#x2014;" horiz-adv-x="1060" 
d="M1030 328v-97h-1000v97h1000z" />
    <glyph glyph-name="quotedblleft" unicode="&#x201c;" horiz-adv-x="257" 
d="M257 719v-178h-102v103zM102 719v-178h-102v103z" />
    <glyph glyph-name="quotedblright" unicode="&#x201d;" horiz-adv-x="255" 
d="M101 719v-103l-102 -75v178h102zM256 719v-103l-102 -75v178h102z" />
    <glyph glyph-name="quoteleft" unicode="&#x2018;" horiz-adv-x="206" 
d="M154 719v-178h-102v103z" />
    <glyph glyph-name="quoteright" unicode="&#x2019;" horiz-adv-x="214" 
d="M158 719v-103l-102 -75v178h102z" />
    <glyph glyph-name="divide" unicode="&#xf7;" horiz-adv-x="553" 
d="M529 295v-79h-506v79h506zM343 465q0 -29 -19.5 -48.5t-47.5 -19.5t-47.5 19.5t-19.5 48.5q0 28 19.5 47.5t47.5 19.5t47.5 -19.5t19.5 -47.5zM343 46q0 -28 -19.5 -47.5t-47.5 -19.5t-47.5 19.5t-19.5 47.5q0 29 19.5 48.5t47.5 19.5t47.5 -19.5t19.5 -48.5z" />
    <glyph glyph-name="lozenge" unicode="&#x25ca;" horiz-adv-x="531" 
d="M77 289l188 -403l188 403l-188 399zM509 289l-244 -522l-244 522l244 518z" />
    <glyph glyph-name="ydieresis" unicode="&#xff;" 
d="M106 512l120 -358l122 358h108l-218 -618q-20 -56 -58 -80q-34 -21 -85 -21h-34v97h30q21 0 37.5 11t23.5 33l28 86l-182 492h108zM369 701v-109h-108v109h108zM193 701v-109h-108v109h108z" />
    <glyph glyph-name="Ydieresis" unicode="&#x178;" horiz-adv-x="553" 
d="M-25 719h114l151 -319l151 319h114l-214 -423v-296h-102v296zM382 878v-109h-108v109h108zM206 878v-109h-108v109h108z" />
    <glyph glyph-name="fraction" unicode="&#x2215;" horiz-adv-x="357" 
d="M427 729l-431 -746h-66l431 746h66z" />
    <glyph glyph-name="currency" unicode="&#xa4;" horiz-adv-x="514" 
d="M43 360q0 77 38 125l-49 49l53 53l49 -50q22 18 54.5 29t69.5 11q35 0 67 -10.5t56 -28.5l49 49l52 -53l-48 -49q18 -23 28.5 -56t10.5 -69q0 -37 -10.5 -70t-28.5 -56l48 -49l-52 -53l-49 50q-25 -19 -55.5 -29.5t-67.5 -10.5q-35 0 -68 11t-56 29l-49 -50l-53 53l49 50
q-38 48 -38 125zM395 360q0 66 -37 105t-100 39q-62 0 -99.5 -39.5t-37.5 -104.5q0 -67 37 -106t100 -39q62 0 99.5 39.5t37.5 105.5z" />
    <glyph glyph-name="guilsinglleft" unicode="&#x2039;" horiz-adv-x="254" 
d="M229 484v-103l-102 -101l102 -101v-103l-204 204z" />
    <glyph glyph-name="guilsinglright" unicode="&#x203a;" horiz-adv-x="244" 
d="M122 280l-102 101v103l204 -204l-204 -204v103z" />
    <glyph glyph-name="fi" unicode="&#xf001;" horiz-adv-x="487" 
d="M34 429v78h51v67q0 68 38 103t100 35h66v-96h-58q-25 0 -34.5 -9.5t-9.5 -32.5v-67h102v-78h-102v-429h-102v429h-51zM453 507v-507h-102v507h102zM453 712v-102h-102v102h102z" />
    <glyph glyph-name="fl" unicode="&#xf002;" horiz-adv-x="496" 
d="M2 429v78h51v67q0 68 38 103t100 35h66v-96h-58q-25 0 -34.5 -9.5t-9.5 -32.5v-67h102v-78h-102v-429h-102v429h-51zM421 712v-581q0 -35 38 -35h35v-96h-45q-60 0 -93 27q-37 31 -37 96v589h102z" />
    <glyph glyph-name="daggerdbl" unicode="&#x2021;" horiz-adv-x="442" 
d="M3 424v79h170v216h96v-216h170v-79h-170v-316h170v-79h-170v-216h-96v216h-170v79h170v316h-170z" />
    <glyph glyph-name="periodcentered" unicode="&#xb7;" horiz-adv-x="195" 
d="M164 295q0 -28 -19 -48t-48 -20q-27 0 -47 20t-20 48t19 48t48 20q27 0 47 -20t20 -48z" />
    <glyph glyph-name="quotesinglbase" unicode="&#x201a;" horiz-adv-x="201" 
d="M151 103v-103l-102 -75v178h102z" />
    <glyph glyph-name="quotedblbase" unicode="&#x201e;" horiz-adv-x="368" 
d="M158 103v-103l-102 -75v178h102zM313 103v-103l-102 -75v178h102z" />
    <glyph glyph-name="perthousand" unicode="&#x2030;" horiz-adv-x="718" 
d="M596 263q40 0 65 -23q29 -27 29 -77v-69q0 -49 -27.5 -74.5t-66.5 -25.5q-40 0 -65 23q-29 27 -29 77v69q0 49 27.5 74.5t66.5 25.5zM352 263q40 0 65 -23q29 -27 29 -77v-69q0 -49 -27.5 -74.5t-66.5 -25.5q-40 0 -65 23q-29 27 -29 77v69q0 49 27.5 74.5t66.5 25.5z
M123 725q40 0 65 -23q29 -27 29 -77v-68q0 -49 -27.5 -74.5t-66.5 -25.5q-40 0 -65 23q-29 27 -29 77v68q0 49 27.5 74.5t66.5 25.5zM439 719l-337 -719h-66l337 719h66zM352 52q37 0 37 49v55q0 49 -37 49t-37 -49v-55q0 -49 37 -49zM123 514q37 0 37 50v54q0 50 -37 50
t-37 -50v-54q0 -50 37 -50zM596 52q37 0 37 49v55q0 49 -37 49t-37 -49v-55q0 -49 37 -49z" />
    <glyph glyph-name="Acircumflex" unicode="&#xc2;" horiz-adv-x="602" 
d="M166 161l-55 -161h-114l259 719h90l259 -719h-114l-55 161h-270zM234 755h-96l106 147h114l106 -147h-96l-67 87zM302 572l-105 -314h208z" />
    <glyph glyph-name="Ecircumflex" unicode="&#xca;" horiz-adv-x="516" 
d="M464 719v-103h-347v-205h296v-97h-296v-211h347v-103h-455v719h455zM175 755h-96l106 147h114l106 -147h-96l-67 87z" />
    <glyph glyph-name="Aacute" unicode="&#xc1;" horiz-adv-x="602" 
d="M166 161l-55 -161h-114l259 719h90l259 -719h-114l-55 161h-270zM450 902l-142 -147h-84l92 147h134zM302 572l-105 -314h208z" />
    <glyph glyph-name="Edieresis" unicode="&#xcb;" horiz-adv-x="516" 
d="M464 719v-103h-347v-205h296v-97h-296v-211h347v-103h-455v719h455zM384 878v-109h-108v109h108zM208 878v-109h-108v109h108z" />
    <glyph glyph-name="Egrave" unicode="&#xc8;" horiz-adv-x="516" 
d="M464 719v-103h-347v-205h296v-97h-296v-211h347v-103h-455v719h455zM227 902l92 -147h-84l-142 147h134z" />
    <glyph glyph-name="Iacute" unicode="&#xcd;" horiz-adv-x="218" 
d="M127 719v-719h-108v719h108zM222 902l-142 -147h-84l92 147h134z" />
    <glyph glyph-name="Icircumflex" unicode="&#xce;" horiz-adv-x="190" 
d="M149 719v-719h-108v719h108zM28 755h-96l106 147h114l106 -147h-96l-67 87z" />
    <glyph glyph-name="Idieresis" unicode="&#xcf;" horiz-adv-x="190" 
d="M149 719v-719h-108v719h108zM237 878v-109h-108v109h108zM61 878v-109h-108v109h108z" />
    <glyph glyph-name="Igrave" unicode="&#xcc;" horiz-adv-x="278" 
d="M229 719v-719h-108v719h108zM160 902l92 -147h-84l-142 147h134z" />
    <glyph glyph-name="Oacute" unicode="&#xd3;" horiz-adv-x="555" 
d="M277 725q78 0 141 -41q53 -34 82 -88q19 -35 25 -75t6 -161q0 -125 -5.5 -163t-25.5 -74q-28 -53 -82 -88q-63 -41 -141 -41t-141 41q-53 34 -82 88q-19 35 -25 75.5t-6 161.5q0 126 5.5 162t25.5 74q29 53 82 88q63 41 141 41zM426 902l-142 -147h-84l92 147h134z
M277 103q37 0 64 14t47.5 40.5t27.5 63t7 139.5q0 106 -6.5 140.5t-29.5 63.5q-17 23 -43 36q-31 16 -67 16q-37 0 -64 -14t-46 -38q-22 -29 -29 -65t-7 -139q0 -108 6.5 -141t29.5 -63q17 -23 45.5 -38t64.5 -15z" />
    <glyph glyph-name="Ocircumflex" unicode="&#xd4;" horiz-adv-x="555" 
d="M277 725q78 0 141 -41q53 -34 82 -88q19 -35 25 -75t6 -161q0 -125 -5.5 -163t-25.5 -74q-28 -53 -82 -88q-63 -41 -141 -41t-141 41q-53 34 -82 88q-19 35 -25 75.5t-6 161.5q0 126 5.5 162t25.5 74q29 53 82 88q63 41 141 41zM210 755h-96l106 147h114l106 -147h-96
l-67 87zM277 103q37 0 64 14t47.5 40.5t27.5 63t7 139.5q0 106 -6.5 140.5t-29.5 63.5q-17 23 -43 36q-31 16 -67 16q-37 0 -64 -14t-46 -38q-22 -29 -29 -65t-7 -139q0 -108 6.5 -141t29.5 -63q17 -23 45.5 -38t64.5 -15z" />
    <glyph glyph-name="apple" unicode="&#xf000;" horiz-adv-x="751" 
d="M387 601v11q0 59 46.5 111t115.5 65v-12l1 -18q0 -64 -50.5 -114.5t-99.5 -50.5h-4l-8 1zM615 29q-44 -46 -100 -46q-25 0 -64 16t-60 16q-23 0 -64 -16t-62 -16q-17 0 -31 4.5t-32 16.5q-29 20 -63 65q-47 65 -75.5 143t-28.5 148q0 107 61.5 174.5t157.5 67.5
q16 0 35.5 -4t40.5 -13q43 -17 60 -17q18 0 61 17t73 17q55 0 97.5 -19.5t77.5 -60.5q-49 -31 -73.5 -70.5t-24.5 -89.5q0 -54 30 -98t84 -67q-30 -64 -52 -102q-25 -42 -48 -66z" />
    <glyph glyph-name="Ograve" unicode="&#xd2;" horiz-adv-x="568" 
d="M284 725q78 0 141 -41q53 -34 82 -88q19 -35 25 -75t6 -161q0 -125 -5.5 -163t-25.5 -74q-28 -53 -82 -88q-63 -41 -141 -41t-141 41q-53 34 -82 88q-19 35 -25 75.5t-6 161.5q0 126 5.5 162t25.5 74q29 53 82 88q63 41 141 41zM269 902l92 -147h-84l-142 147h134z
M284 103q37 0 64 14t47.5 40.5t27.5 63t7 139.5q0 106 -6.5 140.5t-29.5 63.5q-17 23 -43 36q-31 16 -67 16q-37 0 -64 -14t-46 -38q-22 -29 -29 -65t-7 -139q0 -108 6.5 -141t29.5 -63q17 -23 45.5 -38t64.5 -15z" />
    <glyph glyph-name="Uacute" unicode="&#xda;" horiz-adv-x="577" 
d="M144 719v-463q0 -73 40 -113t105 -40q64 0 104.5 40.5t40.5 112.5v463h108v-476q0 -110 -72.5 -179.5t-180.5 -69.5t-179 68q-74 71 -74 181v476h108zM438 902l-142 -147h-84l92 147h134z" />
    <glyph glyph-name="Ucircumflex" unicode="&#xdb;" horiz-adv-x="577" 
d="M144 719v-463q0 -73 40 -113t105 -40q64 0 104.5 40.5t40.5 112.5v463h108v-476q0 -110 -72.5 -179.5t-180.5 -69.5t-179 68q-74 71 -74 181v476h108zM222 755h-96l106 147h114l106 -147h-96l-67 87z" />
    <glyph glyph-name="Ugrave" unicode="&#xd9;" horiz-adv-x="577" 
d="M144 719v-463q0 -73 40 -113t105 -40q64 0 104.5 40.5t40.5 112.5v463h108v-476q0 -110 -72.5 -179.5t-180.5 -69.5t-179 68q-74 71 -74 181v476h108zM274 902l92 -147h-84l-142 147h134z" />
    <glyph glyph-name="dotlessi" unicode="&#x131;" horiz-adv-x="206" 
d="M154 507v-507h-102v507h102z" />
    <glyph glyph-name="circumflex" unicode="&#x2c6;" horiz-adv-x="309" 
d="M87 578h-96l106 147h114l106 -147h-96l-67 87z" />
    <glyph glyph-name="tilde" unicode="&#x2dc;" horiz-adv-x="355" 
d="M112 705q22 0 54 -12q69 -26 82 -26q17 0 29.5 9.5t17.5 34.5h60q-9 -50 -34 -81q-29 -36 -76 -36q-28 0 -77.5 18.5t-66.5 18.5q-14 0 -28 -10.5t-14 -32.5h-60q7 54 37.5 85.5t75.5 31.5z" />
    <glyph glyph-name="macron" unicode="&#xaf;" horiz-adv-x="324" 
d="M306 680v-67h-288v67h288z" />
    <glyph glyph-name="breve" unicode="&#x2d8;" horiz-adv-x="333" 
d="M100 661q24 -17 66 -17q40 0 63 14q29 18 38 60h60q-5 -64 -47 -102t-114 -38q-71 0 -113.5 38.5t-47.5 101.5h60q10 -40 35 -57z" />
    <glyph glyph-name="dotaccent" unicode="&#x2d9;" horiz-adv-x="157" 
d="M132 694v-108h-108v108h108z" />
    <glyph glyph-name="ring" unicode="&#x2da;" horiz-adv-x="279" 
d="M243 660q0 -43 -30 -73t-73 -30t-73 30t-30 73t30 73t73 30t73 -30t30 -73zM203 660q0 27 -18 45t-45 18t-45 -18t-18 -45t18 -45t45 -18t45 18t18 45z" />
    <glyph glyph-name="cedilla" unicode="&#xb8;" horiz-adv-x="209" 
d="M99 -61q16 4 29 4q41 0 64.5 -21.5t23.5 -54.5q0 -46 -37 -72q-33 -23 -86 -23q-21 0 -47.5 6.5t-53.5 17.5l18 42q14 -5 34.5 -10t35.5 -5q28 0 43 10t15 33q0 22 -17.5 29.5t-31.5 7.5q-20 0 -38 -11l-22 19l63 89h51z" />
    <glyph glyph-name="hungarumlaut" unicode="&#x2ba;" horiz-adv-x="385" 
d="M206 718l-142 -146h-84l92 146h134zM406 718l-142 -146h-84l92 146h134z" />
    <glyph glyph-name="ogonek" unicode="&#x2db;" horiz-adv-x="200" 
d="M100 -226q-43 0 -70 25t-27 68q0 44 26 77q17 22 65 56h51q-30 -28 -47 -61.5t-17 -64.5q0 -22 14.5 -35.5t34.5 -13.5q32 0 53 15l14 -42q-17 -11 -40.5 -17.5t-56.5 -6.5z" />
    <glyph glyph-name="caron" unicode="&#x2c7;" horiz-adv-x="333" 
d="M99 718l67 -86l67 86h96l-106 -146h-114l-106 146h96z" />
    <glyph glyph-name="Lslash" unicode="&#x141;" horiz-adv-x="517" 
d="M-6 189v90l73 55v378h108v-302l155 112v-90l-155 -112v-218h347v-102h-455v244z" />
    <glyph glyph-name="lslash" unicode="&#x142;" horiz-adv-x="296" 
d="M27 257v74l66 52v329h102v-251l66 52v-74l-66 -52v-256q0 -35 33 -35h40v-96h-45q-60 0 -93 27q-37 31 -37 96v186z" />
    <glyph glyph-name="Scaron" unicode="&#x160;" horiz-adv-x="532" 
d="M278 103q65 0 103 27t38 73q0 40 -22.5 65.5t-70.5 31.5l-94 13q-91 13 -140 67t-49 135q0 94 62 152t170 58q62 0 120.5 -20t110.5 -55l-60 -89q-41 26 -85.5 40.5t-90.5 14.5q-52 0 -85.5 -26.5t-33.5 -76.5q0 -33 24.5 -58.5t76.5 -33.5l80 -11q95 -11 147 -72
q48 -56 48 -135q0 -99 -67 -154t-183 -55q-161 0 -272 99l71 82q41 -33 94 -52.5t108 -19.5zM212 902l67 -87l67 87h96l-106 -147h-114l-106 147h96z" />
    <glyph glyph-name="scaron" unicode="&#x161;" horiz-adv-x="439" 
d="M234 91q46 0 73 16.5t27 49.5q0 25 -16.5 36.5t-45.5 13.5l-90 8q-63 0 -104.5 40.5t-41.5 105.5q0 75 52.5 116t136.5 41q63 0 111.5 -18t87.5 -52l-63 -74q-33 23 -64.5 35t-71.5 12q-47 0 -67 -16t-20 -45q0 -20 15.5 -34.5t51.5 -14.5l84 -6q74 0 113 -46
q34 -40 34 -107q0 -73 -59.5 -115.5t-150.5 -42.5q-127 0 -223 92l71 71q33 -33 72 -49.5t88 -16.5zM166 725l67 -87l67 87h96l-106 -147h-114l-106 147h96z" />
    <glyph glyph-name="Zcaron" unicode="&#x17d;" horiz-adv-x="480" 
d="M336 616h-310v96h442v-81l-324 -529h324v-102h-455v90zM174 893l67 -86l67 86h96l-106 -146h-114l-106 146h96z" />
    <glyph glyph-name="zcaron" unicode="&#x17e;" horiz-adv-x="400" 
d="M265 417h-240v90h364v-81l-254 -330h254v-96h-378v81zM133 718l67 -86l67 86h96l-106 -146h-114l-106 146h96z" />
    <glyph glyph-name="brokenbar" unicode="&#xa6;" horiz-adv-x="182" 
d="M130 268v-274h-78v274h78zM130 725v-274h-78v274h78z" />
    <glyph glyph-name="Eth" unicode="&#xd0;" horiz-adv-x="652" 
d="M36 314v97h75v308h249q71 0 127 -31t90 -90q26 -44 32 -84.5t6 -153.5q0 -122 -7 -161t-33 -80q-33 -53 -86 -84q-61 -35 -136 -35h-242v314h-75zM355 314h-136v-211h129q90 0 132 63q17 26 22 59t5 131q0 105 -4.5 137.5t-28 64.5t-52.5 45t-74 13h-129v-205h136v-97z
" />
    <glyph glyph-name="eth" unicode="&#xf0;" horiz-adv-x="462" 
d="M211 644q-34 23 -89 42l32 76q87 -28 146 -71l104 54l38 -55l-90 -48q57 -70 71 -136.5t14 -232.5q0 -98 -9.5 -135.5t-45.5 -77.5q-26 -29 -57 -45q-42 -21 -97 -21q-54 0 -96 21q-31 16 -58 45q-31 35 -43 75t-12 122q0 79 12.5 120t42.5 75q26 29 57 45q40 21 88 21
q34 0 60.5 -10t48.5 -35l2 2q-7 36 -23.5 68t-39.5 55l-101 -53l-38 56zM228 415q-26 0 -48 -10t-35 -29t-18.5 -43.5t-5.5 -75.5q0 -56 5 -78t20 -45q26 -37 82 -37q27 0 49 10t33 27q15 21 20 43.5t5 78.5q0 54 -5 77t-20 45q-10 15 -33.5 26t-48.5 11z" />
    <glyph glyph-name="Yacute" unicode="&#xdd;" horiz-adv-x="542" 
d="M6 719h114l151 -319l151 319h114l-214 -423v-296h-102v296zM420 902l-142 -147h-84l92 147h134z" />
    <glyph glyph-name="yacute" unicode="&#xfd;" horiz-adv-x="480" 
d="M119 512l120 -358l122 358h108l-218 -618q-20 -56 -58 -80q-34 -21 -85 -21h-34v97h30q21 0 37.5 11t23.5 33l28 86l-182 492h108zM389 725l-142 -147h-84l92 147h134z" />
    <glyph glyph-name="Thorn" unicode="&#xde;" horiz-adv-x="557" 
d="M139 719v-125h164q103 0 166 -70q57 -63 57 -149q0 -87 -56 -149q-63 -70 -167 -70h-164v-156h-108v719h108zM301 259q52 0 84.5 35.5t32.5 80.5q0 44 -31 78q-34 38 -87 38h-161v-232h162z" />
    <glyph glyph-name="thorn" unicode="&#xfe;" horiz-adv-x="480" 
d="M140 719v-260q25 27 58.5 43t72.5 16q44 0 78 -18t58 -49q21 -28 28.5 -65.5t7.5 -129.5q0 -95 -7 -130t-30 -65.5t-57 -48.5t-78 -18q-39 0 -69 15t-62 46v-262h-102v926h102zM240 415q-49 0 -73 -30q-27 -34 -27 -129t25 -127t75 -32q64 0 86 50q15 34 15 109
q0 98 -24.5 128.5t-76.5 30.5z" />
    <glyph glyph-name="minus" unicode="&#xad;" horiz-adv-x="555" 
d="M531 292v-78h-506v78h506z" />
    <glyph glyph-name="multiply" unicode="&#xd7;" horiz-adv-x="560" 
d="M47 435l55 57l178 -181l177 181l56 -57l-179 -179l179 -179l-56 -56l-177 181l-178 -181l-55 56l179 179z" />
    <glyph glyph-name="onesuperior" unicode="&#xb9;" horiz-adv-x="276" 
d="M63 592v85l66 44h84v-431h-84v346z" />
    <glyph glyph-name="twosuperior" unicode="&#xb2;" horiz-adv-x="347" 
d="M209 552q22 25 22 49t-14.5 37.5t-40.5 13.5q-56 0 -56 -62h-84q0 60 38.5 97.5t98.5 37.5q62 0 102 -36t40 -88q0 -24 -6.5 -42.5t-25.5 -38.5l-148 -157h180v-73h-282v73z" />
    <glyph glyph-name="threesuperior" unicode="&#xb3;" horiz-adv-x="352" 
d="M166 545q33 0 52.5 15t19.5 41q0 21 -17 36t-42 15t-43 -12.5t-24 -39.5h-84q0 54 40.5 89.5t101.5 35.5q70 0 113 -38q39 -34 39 -85q0 -28 -11 -50t-40 -39q29 -16 42.5 -41.5t13.5 -53.5q0 -60 -42.5 -96t-112.5 -36q-61 0 -99 30t-48 91h84q17 -48 68 -48
q29 0 47.5 15.5t18.5 41.5q0 27 -21 45t-51 18h-37v66h32z" />
    <glyph glyph-name="onehalf" unicode="&#xbd;" horiz-adv-x="673" 
d="M535 736l-431 -753h-66l431 753h66zM549 263q11 12 16.5 23t5.5 25q0 23 -14.5 37.5t-40.5 14.5t-41 -17t-15 -46h-84q0 60 38.5 97.5t98.5 37.5q62 0 102 -36t40 -88q0 -24 -6.5 -42.5t-25.5 -38.5l-148 -157h180v-73h-282v73zM17 592v85l66 44h84v-431h-84v346z" />
    <glyph glyph-name="onequarter" unicode="&#xbc;" horiz-adv-x="683" 
d="M566 736l-431 -753h-66l431 753h66zM503 429h84l-152 -294h109v111h84v-111h33v-72h-33v-63h-84v63h-196v72zM23 592v85l66 44h84v-431h-84v346z" />
    <glyph glyph-name="threequarters" unicode="&#xbe;" horiz-adv-x="680" 
d="M617 736l-431 -753h-66l431 753h66zM524 429h84l-152 -294h109v111h84v-111h33v-72h-33v-63h-84v63h-196v72zM139 545q33 0 52.5 15t19.5 41q0 21 -17 36t-42 15t-43 -12.5t-24 -39.5h-84q0 54 40.5 89.5t101.5 35.5q70 0 113 -38q39 -34 39 -85q0 -28 -11 -50t-40 -39
q29 -16 42.5 -41.5t13.5 -53.5q0 -60 -42.5 -96t-112.5 -36q-61 0 -99 30t-48 91h84q17 -48 68 -48q29 0 47.5 15.5t18.5 41.5q0 27 -21 45t-51 18h-37v66h32z" />
  </font>
</defs>
</svg>
